<svg width="139" height="30" viewBox="0 0 139 30" fill="none" xmlns="http://www.w3.org/2000/svg">
<path d="M17.6814 0C17.8075 0.0491324 17.9292 0.128172 18.0596 0.143125C20.6892 0.461418 22.7934 1.70682 24.3934 3.79601C25.4038 5.11404 25.9955 6.61792 26.1664 8.27561C26.1963 8.57254 26.3544 8.65585 26.6129 8.70498C28.6551 9.08095 30.4217 9.98883 31.8658 11.4884C33.673 13.3662 34.6257 15.6006 34.6364 18.2239C34.6492 21.6888 33.2052 24.4167 30.4046 26.4055C28.8324 27.5227 27.0465 28.108 25.0983 28.1102C21.8513 28.1144 18.6043 28.1358 15.3573 28.1016C13.3428 28.0802 11.5805 27.3283 10.0681 26.0081C8.74576 24.8546 7.86992 23.4191 7.43413 21.7187C7.37218 21.473 7.27178 21.3149 6.97272 21.2957C5.42611 21.1889 4.06322 20.6057 2.88832 19.6081C1.35667 18.305 0.453058 16.658 0.271482 14.6351C0.260801 14.5154 0.181762 14.4022 0.134766 14.2869V13.5114C0.181762 13.4003 0.262937 13.2935 0.271482 13.1803C0.418879 11.4949 1.09392 10.0401 2.2496 8.82461C3.72998 7.26733 5.55856 6.48334 7.71825 6.50471C7.981 6.50684 8.1284 6.44703 8.23307 6.16719C8.60049 5.1824 9.10677 4.27238 9.78608 3.46063C11.1148 1.87558 12.7703 0.818162 14.7869 0.339655C15.2846 0.222164 15.7866 0.113218 16.2844 0H17.6814V0ZM10.5786 21.3619C10.6171 21.5307 10.6213 21.6631 10.6747 21.7721C11.6958 23.8399 13.3215 25.0234 15.6649 25.0469C18.6919 25.0789 21.721 25.0682 24.748 25.0447C25.3867 25.0404 26.0489 24.9764 26.6599 24.8033C29.078 24.1176 30.6417 22.5069 31.3595 20.1272C31.8124 18.6255 31.7013 17.0981 31.0433 15.6604C30.0372 13.4623 28.3389 12.1015 25.94 11.7106C25.1816 11.5867 24.3934 11.6273 23.6179 11.6252C23.2996 11.6252 23.1779 11.5333 23.1864 11.2065C23.2035 10.5464 23.242 9.88202 23.1779 9.22835C23.1095 8.53836 23.0283 7.82274 22.7784 7.18615C21.9453 5.06491 20.3965 3.71911 18.1407 3.26837C16.0857 2.85823 14.2721 3.39227 12.7362 4.8107C11.4929 5.95784 10.8093 7.38268 10.7516 9.08736C10.7388 9.43342 10.6021 9.58723 10.2261 9.57655C9.38661 9.55092 8.54282 9.58296 7.70329 9.56373C6.74842 9.54237 5.90035 9.82648 5.12277 10.3648C3.58258 11.4265 2.84773 13.6033 3.50781 15.3186C4.10595 16.8738 5.21463 17.8735 6.87872 18.2153C7.15643 18.273 7.27178 18.2367 7.3316 17.9419C7.57299 16.7499 8.03654 15.6433 8.76071 14.665C10.3308 12.5394 12.4221 11.341 15.0774 11.1402C17.1346 10.9843 19.0294 11.4265 20.7533 12.5694C22.5007 13.725 23.3851 15.7822 23.0006 17.8137C22.6267 19.7918 20.7319 21.3342 18.6491 21.3406C16.1263 21.347 13.6035 21.3406 11.0785 21.3406C10.9289 21.3406 10.7773 21.3555 10.5765 21.3662L10.5786 21.3619ZM14.6716 18.3029C15.9127 18.3029 17.1538 18.3008 18.3949 18.3029C19.0379 18.3029 19.5592 18.0807 19.8753 17.4976C20.1851 16.9251 20.0676 16.376 19.7407 15.8505C19.258 15.0751 18.4868 14.7269 17.6708 14.4471C14.7079 13.4302 11.6061 14.9063 10.5252 17.8457C10.3799 18.2409 10.4184 18.3029 10.8328 18.3029C12.1124 18.3029 13.392 18.3029 14.6737 18.3029H14.6716Z" fill="#15BDFF"/>
<path d="M93.4857 29.7806C93.3725 29.7336 93.2635 29.6546 93.1482 29.6439C91.9647 29.5414 90.8304 29.2637 89.7752 28.7061C87.7522 27.6359 87.2865 25.583 88.2115 23.9211C88.4187 23.5472 88.754 23.2439 89.0125 22.9299C88.6793 22.5048 88.3054 22.1202 88.0363 21.6738C87.3036 20.454 87.592 18.7472 88.6793 17.5958C88.769 17.5018 88.8609 17.4099 88.9548 17.3224C89.2767 17.0204 89.3479 16.6737 89.1685 16.282C87.938 13.5904 89.2133 10.305 91.9562 9.19842C93.8766 8.42512 95.718 8.50629 97.3821 9.882C97.4099 9.9055 97.4505 9.91404 97.4868 9.92686C97.4975 9.93113 97.5103 9.92259 97.5744 9.9119C97.5829 9.79228 97.6 9.6577 97.6022 9.52312C97.6086 9.20055 97.7837 9.04888 98.0892 9.04461C98.5293 9.0382 98.9693 9.03607 99.4094 9.04461C99.7127 9.05102 99.9007 9.21764 99.9028 9.52739C99.9114 11.3239 100.033 13.129 99.8836 14.9127C99.6999 17.1087 98.3477 18.5293 96.3098 19.2706C94.9063 19.7811 93.49 19.7256 92.1121 19.1253C91.9113 19.0377 91.7169 18.9288 91.5439 18.7985C91.2876 18.6062 91.1039 18.6724 90.9201 18.9031C90.4694 19.4692 90.337 20.0973 90.651 20.7509C90.9757 21.4238 91.5952 21.6973 92.3108 21.708C93.6566 21.7293 95.0024 21.708 96.3482 21.7144C97.365 21.7208 98.3648 21.8425 99.2769 22.3317C100.856 23.1777 101.244 24.8183 100.804 26.4097C100.428 27.7705 99.4265 28.5908 98.1597 29.0415C97.3287 29.3363 96.4337 29.4452 95.5685 29.6439C95.466 29.6674 95.372 29.7336 95.2737 29.7806H93.4878H93.4857ZM96.9207 14.0625C96.8588 12.4241 95.5557 11.3602 94.0967 11.482C92.6398 11.6059 91.6144 12.9068 91.7575 14.4577C91.8964 15.9531 93.1012 16.9742 94.5944 16.8567C95.968 16.7499 97.0361 15.4639 96.9207 14.0604V14.0625ZM94.4064 24.2287C93.7848 24.2287 93.1653 24.218 92.5437 24.2351C92.2104 24.2436 91.8708 24.2714 91.546 24.344C90.8497 24.4978 90.5207 25.1109 90.7065 25.7945C90.8796 26.4332 91.3773 26.6917 91.9327 26.8583C93.1161 27.2151 94.3338 27.1723 95.5471 27.0848C96.2435 27.0335 96.9378 26.9331 97.5317 26.508C98.3071 25.9526 98.2281 24.7948 97.365 24.4145C97.0788 24.2885 96.7391 24.2479 96.423 24.2351C95.7522 24.2094 95.0793 24.2265 94.4064 24.2265V24.2287Z" fill="#ddd"/>
<path d="M138.132 11.0675C137.944 11.5417 137.577 11.6229 137.107 11.5972C136.423 11.5609 135.737 11.593 135.052 11.5844C134.77 11.5801 134.665 11.687 134.667 11.9753C134.676 13.8637 134.633 15.7521 134.684 17.6384C134.723 19.044 135.669 19.8857 137.051 19.9626C137.991 20.0138 137.993 19.9839 137.993 20.9324C137.993 21.3212 137.993 21.7078 137.993 22.0966C137.993 22.3701 137.859 22.558 137.585 22.5709C136.209 22.6435 134.862 22.5452 133.68 21.7292C132.608 20.9858 132.023 19.922 131.869 18.6509C131.766 17.8071 131.768 16.9505 131.758 16.0982C131.741 14.7545 131.741 13.4087 131.762 12.0629C131.768 11.6827 131.638 11.5502 131.268 11.5823C130.986 11.6058 130.7 11.5801 130.416 11.5908C130.042 11.6058 129.852 11.4071 129.837 11.061C129.816 10.5569 129.822 10.0528 129.837 9.54863C129.848 9.21111 130.038 9.03167 130.388 9.03594C130.711 9.04021 131.036 9.02526 131.358 9.04235C131.666 9.05944 131.764 8.93127 131.762 8.6322C131.749 7.62392 131.758 6.61563 131.756 5.60522C131.756 4.8191 131.856 4.7187 132.657 4.7187C133.097 4.7187 133.537 4.71442 133.975 4.7187C134.526 4.7251 134.671 4.86182 134.674 5.40655C134.68 6.45328 134.693 7.50215 134.665 8.54889C134.654 8.95476 134.793 9.06157 135.178 9.04448C135.797 9.01671 136.419 9.05517 137.038 9.02953C137.495 9.01031 137.912 9.01885 138.134 9.51017V11.0632L138.132 11.0675Z" fill="#ddd"/>
<path d="M71.8505 17.1259C70.9063 17.1259 69.9621 17.1259 69.0179 17.1259C68.6056 17.1259 68.5693 17.1729 68.6569 17.5809C68.9367 18.9074 69.9044 19.6466 71.2203 19.8068C72.2799 19.935 73.3608 19.888 74.4332 19.9115C74.8604 19.92 75.2876 19.9115 75.7149 19.9115C76.3365 19.9115 76.5416 20.0973 76.5523 20.7104C76.5587 21.1611 76.5416 21.614 76.5181 22.0669C76.4988 22.4108 76.2724 22.586 75.9499 22.5796C74.117 22.5411 72.2606 22.6436 70.4556 22.4001C68.2104 22.0946 66.5848 20.7617 65.8371 18.5763C65.0852 16.3782 65.1236 14.1587 66.1746 12.0545C67.1167 10.1661 68.6953 9.09164 70.7952 8.8118C72.2671 8.61527 73.6876 8.77121 75.0057 9.50179C76.4177 10.2836 77.3661 11.4479 77.6204 13.0521C77.7891 14.116 77.6396 15.1755 76.9667 16.0834C76.3835 16.8717 75.5354 17.1088 74.6105 17.1237C73.6919 17.1387 72.7733 17.128 71.8548 17.1259H71.8505ZM71.5108 14.415C72.3376 14.415 73.1643 14.4193 73.991 14.415C74.7963 14.4108 75.1381 13.8361 74.7963 13.097C74.399 12.2383 73.6791 11.8281 72.8118 11.5739C71.0174 11.0484 69.0628 12.187 68.6569 14.007C68.5864 14.3189 68.6676 14.4257 68.9923 14.4193C69.8318 14.4044 70.6713 14.415 71.5108 14.4129V14.415Z" fill="#ddd"/>
<path d="M46.1456 17.1257C45.1886 17.1257 44.2315 17.1342 43.2745 17.1193C42.9541 17.115 42.8772 17.2282 42.9135 17.5358C43.0225 18.4458 43.8193 19.3943 44.8019 19.6378C45.4107 19.7874 46.043 19.8792 46.6689 19.9027C47.7798 19.9433 48.8927 19.9113 50.0057 19.9155C50.638 19.9177 50.779 20.0672 50.7811 20.6974C50.7811 21.1374 50.7811 21.5775 50.7811 22.0176C50.7811 22.385 50.5696 22.5858 50.2278 22.5815C48.4591 22.5559 46.6818 22.6093 44.9237 22.4469C42.4799 22.2226 40.5466 20.424 39.9228 18.0442C39.4038 16.064 39.4828 14.1115 40.3309 12.2487C41.2131 10.3091 42.7789 9.17476 44.8745 8.83511C46.4276 8.58304 47.94 8.74752 49.3392 9.54432C51.1784 10.5911 52.27 12.5286 51.8257 14.763C51.5416 16.19 50.4436 17.1129 48.9376 17.1278C48.0062 17.1364 47.0748 17.1278 46.1434 17.1278L46.1456 17.1257ZM45.776 14.4148C46.6305 14.4148 47.485 14.4277 48.3373 14.4106C48.9974 14.3978 49.3306 13.9321 49.1405 13.3083C49.0892 13.1374 49.0123 12.9665 48.9098 12.8212C48.1579 11.7574 47.0855 11.3814 45.8337 11.4541C44.5263 11.531 43.2468 12.6418 42.9456 13.915C42.8409 14.3614 42.8793 14.4127 43.3301 14.4127C44.1461 14.4127 44.96 14.4127 45.776 14.4127V14.4148Z" fill="#ddd"/>
<path d="M108.379 17.1259C107.435 17.1259 106.491 17.1259 105.544 17.1259C105.13 17.1259 105.051 17.2156 105.138 17.6022C105.365 18.6062 105.974 19.3026 106.941 19.6103C107.512 19.7918 108.127 19.8794 108.727 19.9029C109.877 19.9478 111.03 19.9115 112.181 19.9157C112.852 19.9179 113.006 20.0759 113.008 20.7382C113.008 21.1654 113.012 21.5926 113 22.0199C112.989 22.3702 112.803 22.5838 112.442 22.5838C110.838 22.5753 109.227 22.6479 107.634 22.524C105.555 22.3617 103.831 21.4474 102.769 19.5718C101.898 18.0359 101.697 16.359 101.9 14.6201C102.086 13.018 102.654 11.5974 103.82 10.4481C104.923 9.36081 106.279 8.84598 107.796 8.74986C109.505 8.64091 111.09 9.01902 112.427 10.1491C113.967 11.4521 114.542 13.4666 113.901 15.2204C113.446 16.4658 112.513 17.1152 111.137 17.128C110.218 17.1365 109.3 17.128 108.381 17.128L108.379 17.1259ZM108.005 14.415C108.86 14.415 109.714 14.4279 110.567 14.4108C111.22 14.3979 111.585 13.8618 111.342 13.2572C111.224 12.9646 111.054 12.6676 110.834 12.4476C109.93 11.5419 108.811 11.2449 107.591 11.5461C106.324 11.858 105.521 12.7146 105.156 13.9686C105.047 14.3403 105.115 14.4172 105.521 14.4172C106.35 14.4172 107.176 14.4172 108.005 14.4172V14.415Z" fill="#ddd"/>
<path d="M119.09 10.0913C119.599 9.80287 120.032 9.49526 120.511 9.29232C122.611 8.4058 124.653 8.46561 126.522 9.87336C127.629 10.7065 128.193 11.8771 128.203 13.2635C128.225 16.1623 128.212 19.059 128.21 21.9578C128.21 22.447 128.073 22.5794 127.586 22.5837C127.043 22.588 126.499 22.588 125.956 22.5837C125.463 22.5794 125.343 22.4577 125.343 21.9514C125.343 19.4414 125.345 16.9313 125.341 14.4213C125.341 13.7975 125.27 13.1802 124.933 12.6312C124.251 11.5246 122.927 11.0077 121.592 11.3196C120.836 11.4969 120.175 11.86 119.552 12.3129C119.306 12.4923 119.225 12.706 119.227 13.005C119.236 15.9423 119.233 18.8795 119.233 21.8147C119.233 22.4769 119.129 22.5837 118.473 22.5837C117.969 22.5837 117.465 22.588 116.958 22.5837C116.518 22.5794 116.358 22.4235 116.335 21.977C116.328 21.8745 116.332 21.7698 116.332 21.6673C116.332 17.7602 116.332 13.8531 116.332 9.94599C116.332 9.80287 116.33 9.65974 116.347 9.52089C116.384 9.22396 116.546 9.04666 116.858 9.04238C117.413 9.03811 117.971 9.03384 118.526 9.04238C118.868 9.04666 119.043 9.23891 119.058 9.5807C119.067 9.74092 119.08 9.90113 119.095 10.0934L119.09 10.0913Z" fill="#ddd"/>
<path d="M58.7508 18.5678C59.1204 17.5253 59.4921 16.4828 59.8574 15.4382C60.4106 13.866 60.9596 12.2938 61.5108 10.7237C61.656 10.3093 61.8013 9.89697 61.9423 9.48041C62.0448 9.17493 62.2307 9.02113 62.5746 9.03394C63.1556 9.05531 63.7388 9.03608 64.3199 9.04035C64.7941 9.04249 64.918 9.18348 64.7642 9.64276C64.5271 10.352 64.2408 11.0441 63.9823 11.7448C63.3094 13.5605 62.6387 15.3742 61.9679 17.1899C61.3676 18.8113 60.7716 20.4348 60.1714 22.0562C60.0368 22.4215 59.8061 22.618 59.381 22.5902C58.8918 22.5582 58.3983 22.5689 57.907 22.5881C57.5396 22.603 57.3217 22.4407 57.1978 22.1138C56.7577 20.9432 56.3113 19.7747 55.8734 18.6019C55.0146 16.2927 54.1623 13.9792 53.3057 11.67C53.0643 11.0163 52.8058 10.3691 52.5687 9.71539C52.3914 9.22406 52.5238 9.04249 53.0429 9.04249C53.6111 9.04249 54.1815 9.05958 54.7497 9.03608C55.1086 9.02113 55.3009 9.17066 55.4119 9.4975C55.7196 10.399 56.0378 11.2983 56.3519 12.1976C56.9778 13.9856 57.6037 15.7758 58.2296 17.5638C58.315 17.8073 58.3834 18.0551 58.471 18.2965C58.5116 18.4033 58.5821 18.5015 58.6397 18.6019L58.7487 18.5699L58.7508 18.5678Z" fill="#ddd"/>
<path d="M82.7509 9.95646C83.426 9.6638 84.0433 9.37755 84.6756 9.12762C85.5301 8.7901 86.4273 8.70679 87.3395 8.74097C87.6514 8.75165 87.8137 8.92468 87.8158 9.23443C87.8201 9.71294 87.8201 10.1914 87.8158 10.67C87.8158 11.1869 87.677 11.3343 87.16 11.3621C86.5662 11.3941 85.9574 11.3429 85.3849 11.4668C84.6756 11.6206 83.9835 11.8876 83.3106 12.1696C82.9133 12.3362 82.7338 12.678 82.7381 13.165C82.7638 16.0489 82.7509 18.9327 82.7509 21.8166C82.7509 22.4788 82.6441 22.5835 81.9883 22.5856C81.497 22.5856 81.0057 22.5899 80.5143 22.5856C80.0358 22.5792 79.897 22.4382 79.8692 21.9597C79.8649 21.87 79.8692 21.7781 79.8692 21.6884C79.8692 17.7707 79.8692 13.8529 79.8692 9.9351C79.8692 9.80693 79.8692 9.67662 79.8799 9.54845C79.9077 9.21093 80.0786 9.03576 80.4332 9.04217C80.9758 9.05072 81.5184 9.04217 82.0631 9.04431C82.5053 9.04431 82.6655 9.19384 82.7146 9.63176C82.7253 9.73003 82.7381 9.83043 82.7531 9.96074L82.7509 9.95646Z" fill="#ddd"/>
</svg>
