<svg width="200" height="35" viewBox="0 0 150 30" fill="none" xmlns="http://www.w3.org/2000/svg">
<path fill-rule="evenodd" clip-rule="evenodd" d="M2.79457 0.114378C2.79457 0.114378 0.705744 0.0757719 0.0887355 2.30847C0.0887355 2.30847 -0.219769 3.71114 0.313686 4.66985L18.2326 7.20496C18.2326 7.20496 19.2738 7.25 19.1903 8.49825C19.1903 8.49825 19.0296 9.46339 18.117 9.45696L3.57869 10.4157L9.77448 21.2767L16.4266 14.1282C16.4266 14.1282 16.9601 13.4269 17.9498 13.961C17.9498 13.961 18.7404 14.5915 18.2905 15.4215L12.0883 25.3239L13.8943 28.7019C13.8943 28.7019 14.8712 30.0917 16.568 29.9952C16.568 29.9952 18.2712 30.0209 19.306 28.1936L32.5459 4.56047C32.5459 4.56047 33.5486 2.49506 32.2053 1.07309C32.2053 1.07309 31.3248 -0.0850851 29.7244 0.00499486L2.79457 0.114378Z" fill="#14CC80"/>
<path d="M53.523 3.89006L53.1759 5.92973C53.118 6.26431 53.0152 6.49594 52.861 6.62463C52.7131 6.75331 52.456 6.81122 52.0961 6.81122H44.6085C44.2486 6.81122 43.9722 6.89487 43.7794 7.06216C43.548 7.26806 43.3937 7.58334 43.3166 8.02087L42.4747 12.9495H50.5086C50.8621 12.9495 51.0806 13.0074 51.1706 13.1233C51.2606 13.2391 51.2799 13.4771 51.2156 13.8375L50.8685 15.8771C50.8107 16.2246 50.7143 16.4627 50.5793 16.5785C50.4508 16.7007 50.2065 16.7586 49.8595 16.7586H41.8255L40.2444 26.0047C40.1802 26.3908 40.0773 26.6417 39.9295 26.7511C39.7881 26.8669 39.5182 26.9248 39.1197 26.9248H36.5295C36.131 26.9248 35.8804 26.8669 35.7775 26.7511C35.6747 26.6353 35.6554 26.3843 35.7197 26.0047L38.9076 7.32597C39.1454 5.92973 39.666 4.86163 40.4694 4.12813C41.2985 3.36888 42.4361 2.98926 43.8822 2.98926H52.7388C53.0988 2.98926 53.3366 3.04717 53.4458 3.16942C53.5551 3.29167 53.5808 3.5233 53.5165 3.87075L53.523 3.89006ZM67.2707 14.5452L65.2718 26.2299C65.1947 26.6996 64.8991 26.9377 64.3913 26.9377H62.7267C62.4567 26.9377 62.2639 26.8862 62.1611 26.7832C62.0518 26.6803 61.994 26.5066 61.9747 26.2685L61.904 25.3806H61.8397C61.3834 26.0176 60.8178 26.4937 60.1494 26.7961C59.4809 27.105 58.6261 27.2594 57.5914 27.2594H56.2674C55.3354 27.2594 54.5834 27.1693 54.0114 26.9891C53.4394 26.809 52.9445 26.5066 52.5396 26.0883C51.6719 25.1747 51.3956 23.8042 51.7105 21.964L51.8583 21.1018C52.199 19.1071 52.9445 17.6852 54.0886 16.8358C55.2969 15.9222 57.1157 15.4653 59.5581 15.4653H60.8371C61.3641 15.4653 62.0261 15.4911 62.8359 15.5361L63.0095 14.5195C63.1701 13.5672 63.0802 12.9174 62.7267 12.5699C62.3732 12.2225 61.5826 12.0487 60.3422 12.0487C58.8961 12.0487 57.3857 12.2804 55.811 12.7501C55.7018 12.7887 55.5989 12.8015 55.5025 12.8015C55.1876 12.8015 55.0269 12.5828 55.0205 12.1517L55.0012 10.4273C54.9755 10.1184 55.0076 9.87394 55.1105 9.70022C55.2133 9.52649 55.4125 9.39781 55.721 9.31416C57.5528 8.74794 59.4038 8.46483 61.2677 8.46483C62.5274 8.46483 63.5365 8.55491 64.2885 8.73507C65.0404 8.91523 65.6896 9.22408 66.2359 9.65518C66.8208 10.1249 67.1935 10.7361 67.3607 11.4825C67.5278 12.2289 67.4956 13.2455 67.2771 14.5324L67.2707 14.5452ZM60.1558 18.9527H58.9089C57.9706 18.9527 57.3214 19.1007 56.9551 19.3903C56.5437 19.6798 56.2545 20.2911 56.1003 21.224L56.0231 21.6616C55.8882 22.4337 55.9781 22.9934 56.2802 23.328C56.5694 23.6304 57.0708 23.7784 57.7842 23.7784H59.0825C59.9051 23.7784 60.5286 23.579 60.9656 23.18C61.4027 22.7811 61.6919 22.1506 61.8397 21.2948L62.2253 19.0299C61.4155 18.9785 60.7214 18.9592 60.1494 18.9592L60.1558 18.9527ZM82.2974 10.1056L81.5004 12.1839C81.3719 12.5313 81.1534 12.705 80.8449 12.705C80.742 12.705 80.6328 12.6857 80.5235 12.6471C79.4952 12.2482 78.364 12.0552 77.1428 12.0552C76.0373 12.0552 75.2789 12.1903 74.8612 12.4541C74.4948 12.6986 74.2634 13.0911 74.167 13.6509L74.122 13.9018C74.0385 14.4101 74.122 14.7769 74.3663 15.0085C74.6169 15.2401 75.0476 15.4267 75.6453 15.5683L77.7662 16.0959C79.4245 16.5206 80.5235 17.1897 81.057 18.1034C81.4554 18.8369 81.5454 19.86 81.3205 21.179L81.2498 21.6165C80.9541 23.328 80.2536 24.6599 79.1288 25.6122C77.7727 26.7189 75.9088 27.2722 73.5372 27.2722C71.519 27.2722 69.7451 26.9184 68.2348 26.2042C67.9455 26.069 67.772 25.9339 67.727 25.7859C67.7077 25.7152 67.6949 25.6251 67.7013 25.5157C67.7206 25.3934 67.7656 25.2583 67.8427 25.0975L68.5368 23.2701C68.7168 22.8519 68.9546 22.6396 69.2567 22.6396C69.3724 22.6396 69.5009 22.6717 69.6423 22.7296C71.1141 23.3666 72.4895 23.6884 73.775 23.6884C74.8869 23.6884 75.6967 23.5404 76.1852 23.238C76.6286 22.9741 76.905 22.4916 77.0271 21.7902L77.0721 21.5393C77.1685 20.9602 77.0914 20.542 76.8343 20.2846C76.5772 20.0272 76.0823 19.802 75.3496 19.609L73.2929 19.1007C72.496 18.8948 71.8854 18.6696 71.4676 18.4251C71.0499 18.1806 70.6899 17.8525 70.3943 17.4407C69.8158 16.6364 69.6552 15.4975 69.9058 14.0305L69.9637 13.7023C70.2722 11.9007 71.0241 10.5688 72.2196 9.71309C73.3636 8.89593 75.054 8.48414 77.2842 8.48414C78.139 8.48414 79.0003 8.56135 79.8744 8.70934C80.7485 8.85733 81.4426 9.03105 81.9568 9.22408C82.201 9.30773 82.3424 9.41067 82.381 9.52006C82.4195 9.63587 82.381 9.8289 82.2781 10.1056H82.2974ZM95.5117 9.77743L95.2032 11.5855C95.1453 11.92 95.0553 12.1581 94.9268 12.2997C94.7982 12.4412 94.5862 12.5056 94.2969 12.5056H90.7427L89.3609 20.5806C89.2452 21.2433 89.1938 21.7195 89.2002 22.0154C89.2066 22.3114 89.2837 22.5624 89.4251 22.7682C89.6372 23.0835 90.1707 23.238 91.0255 23.238H92.7737C93.1336 23.238 93.3586 23.3023 93.4421 23.4245C93.5257 23.5532 93.5321 23.8042 93.4678 24.1902L93.1593 26.0176C93.095 26.3908 93.0051 26.6353 92.883 26.7575C92.7608 26.8798 92.5166 26.9377 92.1438 26.9377H89.573C88.5318 26.9377 87.7026 26.8412 87.0728 26.6546C86.4429 26.468 85.948 26.1656 85.5753 25.7409C84.8104 24.8723 84.6112 23.3988 84.9647 21.3141L86.4686 12.4991H84.3155C84.0327 12.4991 83.8528 12.4477 83.7692 12.3511C83.6857 12.2546 83.6664 12.068 83.7178 11.7914L83.9942 10.1635C84.0456 9.87394 84.1163 9.68091 84.2063 9.5844C84.2963 9.48789 84.4634 9.42354 84.7012 9.38494L87.0599 8.98601L87.7219 5.0997C87.7862 4.72651 87.8955 4.47558 88.0561 4.34689C88.2168 4.21821 88.4996 4.1603 88.8917 4.1603H91.1476C91.5461 4.1603 91.7968 4.22464 91.9124 4.34689C92.0217 4.47558 92.0474 4.72008 91.9831 5.0997L91.3533 8.78655H94.9075C95.2096 8.78655 95.4024 8.85733 95.4731 8.99245C95.5502 9.134 95.5567 9.38494 95.4924 9.75813L95.5117 9.77743Z" fill="#ddd"/>
<path d="M114.712 10.1004L114.596 10.7696C114.14 13.4527 113.021 15.428 111.254 16.6955C110.322 17.3583 109.281 17.828 108.124 18.1111C106.967 18.3942 105.611 18.5357 104.062 18.5357H101.98L100.701 26.0124C100.636 26.3984 100.533 26.6494 100.386 26.7588C100.244 26.8746 99.9743 26.9325 99.5758 26.9325H97.0049C96.6064 26.9325 96.3558 26.8746 96.2465 26.7588C96.1372 26.6429 96.118 26.392 96.1822 26.0124L99.865 4.44466C99.955 3.90418 100.109 3.52456 100.328 3.30579C100.546 3.08702 100.9 2.9519 101.388 2.88756C102.532 2.74601 104.37 2.6688 106.903 2.6688C110.168 2.6688 112.392 3.23501 113.581 4.36745C114.789 5.49988 115.162 7.41086 114.705 10.094L114.712 10.1004ZM109.641 7.37869C109.332 7.08271 108.94 6.87682 108.465 6.75457C107.989 6.63875 107.288 6.57441 106.369 6.57441C105.54 6.57441 104.897 6.60658 104.428 6.66449C104.152 6.70309 103.991 6.86395 103.94 7.15993L102.648 14.6494H104.872C106.504 14.6494 107.706 14.3535 108.471 13.7551C109.236 13.1567 109.75 12.1272 110.001 10.6602L110.084 10.1776C110.316 8.83284 110.168 7.89343 109.641 7.37226V7.37869ZM123.292 4.10364L123.253 4.34171C123.112 5.15886 122.771 5.79586 122.238 6.24626C121.698 6.69666 121.055 6.92186 120.31 6.92186H120.136C119.249 6.92186 118.645 6.70309 118.324 6.27199C118.002 5.8409 117.912 5.19103 118.06 4.34171L118.099 4.10364C118.24 3.26075 118.587 2.62376 119.127 2.19909C119.667 1.77443 120.31 1.55566 121.055 1.55566H121.229C122 1.55566 122.572 1.768 122.951 2.18622C123.331 2.60445 123.446 3.24788 123.298 4.09721L123.292 4.10364ZM121.017 8.80067C121.415 8.80067 121.672 8.86501 121.788 8.9937C121.904 9.12238 121.936 9.36689 121.872 9.74007L119.089 26.0124C119.024 26.3727 118.915 26.6172 118.754 26.7459C118.594 26.8746 118.311 26.9389 117.919 26.9389H115.663C115.265 26.9389 115.014 26.881 114.898 26.7588C114.782 26.6365 114.757 26.392 114.821 26.0188L117.598 9.74651C117.662 9.37332 117.771 9.12238 117.925 9.00013C118.08 8.87144 118.356 8.8071 118.754 8.8071H121.01L121.017 8.80067ZM139.81 9.21246C139.791 9.32185 139.726 9.45696 139.617 9.62426L134.218 17.2489C134.051 17.4805 134.013 17.7186 134.096 17.9631L136.905 26.1218C136.956 26.2762 136.975 26.4113 136.956 26.5207C136.911 26.7974 136.641 26.9389 136.153 26.9389H133.28C132.92 26.9389 132.682 26.9003 132.566 26.8231C132.451 26.7459 132.348 26.5464 132.264 26.2376L130.69 20.2794C130.555 19.7583 130.426 19.5009 130.298 19.5009H129.861C129.719 19.5009 129.494 19.7583 129.186 20.2794L125.522 26.2376C125.342 26.54 125.175 26.733 125.027 26.8167C124.88 26.9003 124.616 26.9453 124.243 26.9453H121.37C120.895 26.9453 120.676 26.8038 120.721 26.5271C120.74 26.4177 120.805 26.2891 120.914 26.1282L126.493 17.9695C126.66 17.725 126.705 17.487 126.615 17.2553L123.98 9.63069C123.922 9.47627 123.909 9.33471 123.928 9.2189C123.973 8.94222 124.243 8.8071 124.732 8.8071H127.534C127.894 8.8071 128.132 8.84571 128.247 8.92292C128.363 9.00013 128.466 9.19316 128.549 9.50844L130.079 15.0033C130.214 15.4602 130.355 15.6854 130.503 15.6854H130.94C131.101 15.6854 131.326 15.4602 131.615 15.0033L135.073 9.50844C135.266 9.19959 135.433 9.00013 135.574 8.92292C135.716 8.84571 135.966 8.8071 136.333 8.8071H139.135C139.623 8.8071 139.848 8.94222 139.797 9.2189L139.81 9.21246Z" fill="#ddd"/>
</svg>
