<svg width="194" height="41" viewBox="0 0 194 41" fill="none" xmlns="http://www.w3.org/2000/svg">
<mask id="mask0_186_14067" style="mask-type:luminance" maskUnits="userSpaceOnUse" x="0" y="0" width="194" height="41">
<path d="M194 0H0V41H194V0Z" fill="white"/>
</mask>
<g mask="url(#mask0_186_14067)">
<path d="M31.507 12.7549H26.7662C26.2618 12.7549 25.8528 13.1581 25.8528 13.6553V18.1326C25.8528 18.2607 25.8805 18.3832 25.9302 18.4935L23.9114 20.4837C23.8838 20.4809 23.8562 20.4796 23.8285 20.4796H19.0877C19.0642 20.4796 19.042 20.4809 19.0186 20.4837L16.9915 18.4854C17.0385 18.3778 17.0634 18.2593 17.0634 18.1339V13.6566C17.0634 13.1595 16.6544 12.7562 16.1501 12.7562H11.4092C10.9049 12.7562 10.4959 13.1595 10.4959 13.6566V18.1339C10.4959 18.262 10.5235 18.3846 10.5732 18.4949L8.55447 20.485C8.52684 20.4823 8.4992 20.4809 8.47157 20.4809H3.73073C3.22639 20.4809 2.81738 20.8841 2.81738 21.3813V25.8585C2.81738 26.3558 3.22639 26.7589 3.73073 26.7589H8.47157C8.97589 26.7589 9.38492 26.3558 9.38492 25.8585V21.3813C9.38492 21.2424 9.35174 21.1102 9.29371 20.993L11.289 19.0261C11.3291 19.0316 11.3691 19.0343 11.4092 19.0343H16.1501C16.1956 19.0343 16.2399 19.0302 16.2827 19.0235L18.2697 20.9822C18.2089 21.1021 18.1743 21.2369 18.1743 21.3813V25.8585C18.1743 26.3558 18.5834 26.7589 19.0877 26.7589H23.8285C24.3329 26.7589 24.7419 26.3558 24.7419 25.8585V21.3813C24.7419 21.2424 24.7087 21.1102 24.6507 20.993L26.6459 19.0261C26.686 19.0316 26.7261 19.0343 26.7662 19.0343H31.507C32.0113 19.0343 32.4204 18.6311 32.4204 18.1339V13.6566C32.4204 13.1581 32.0113 12.7549 31.507 12.7549Z" fill="url(#paint0_linear_186_14067)"/>
<path d="M14.7655 20.5771H11.5542C11.4023 20.5771 11.2793 20.6984 11.2793 20.8483V24.0138C11.2793 24.1637 11.4023 24.2848 11.5542 24.2848H14.7655C14.9174 24.2848 15.0405 24.1637 15.0405 24.0138V20.8483C15.0405 20.6984 14.9174 20.5771 14.7655 20.5771Z" fill="#106196"/>
<path d="M11.7222 25.9839C11.6504 25.9839 11.5938 26.0411 11.5938 26.1106V26.7835C11.5938 26.8543 11.6518 26.9101 11.7222 26.9101H12.4048C12.4767 26.9101 12.5333 26.8529 12.5333 26.7835V26.1106C12.5333 26.0397 12.4753 25.9839 12.4048 25.9839H11.7222Z" fill="#106196"/>
<path d="M8.77246 12.3053V12.7834C8.77246 12.9074 8.87476 13.0082 9.00045 13.0082H9.51447C9.64024 13.0082 9.74246 12.9074 9.74246 12.7834V12.3053C9.74246 12.1814 9.64024 12.0806 9.51447 12.0806H9.00045C8.87337 12.0806 8.77246 12.1814 8.77246 12.3053Z" fill="#106196"/>
<path d="M13.4326 6.24512H9.63414C9.26521 6.24512 8.9668 6.53934 8.9668 6.90302V10.495C8.9668 10.8587 9.26521 11.1528 9.63414 11.1528H13.4326C13.8016 11.1528 14.1001 10.8587 14.1001 10.495V6.90302C14.1014 6.5407 13.8016 6.24512 13.4326 6.24512Z" fill="#106196"/>
<path d="M14.7266 26.1006V27.4123C14.7266 27.5622 14.8496 27.6834 15.0016 27.6834H16.3322C16.4842 27.6834 16.6071 27.5622 16.6071 27.4123V26.1006C16.6071 25.9508 16.4842 25.8296 16.3322 25.8296H15.0016C14.8496 25.8296 14.7266 25.9508 14.7266 26.1006Z" fill="#106196"/>
<path d="M4.04155 17.0236H7.07729C7.4932 17.0236 7.8317 16.6912 7.8317 16.2798V13.1319C7.8317 12.722 7.49459 12.3882 7.07729 12.3882H4.04155C3.62564 12.3882 3.28711 12.7206 3.28711 13.1319V16.2798C3.28711 16.6912 3.62564 17.0236 4.04155 17.0236Z" fill="#106196"/>
<path d="M7.35414 11.4622C7.47988 11.4622 7.58214 11.3615 7.58214 11.2375V9.67788C7.58214 9.55389 7.47988 9.45312 7.35414 9.45312H5.70846C5.58272 9.45312 5.48047 9.55389 5.48047 9.67788V11.2375C5.48047 11.3615 5.58272 11.4622 5.70846 11.4622H7.35414Z" fill="#106196"/>
<path d="M15.8242 31.055V31.7278C15.8242 31.7986 15.8823 31.8545 15.9527 31.8545H16.6353C16.7072 31.8545 16.7638 31.7973 16.7638 31.7278V31.055C16.7638 30.9841 16.7058 30.9282 16.6353 30.9282H15.9527C15.8823 30.9269 15.8242 30.9841 15.8242 31.055Z" fill="#106196"/>
<path d="M16.4147 9.75391H15.5456C15.4392 9.75391 15.3535 9.83836 15.3535 9.94322V10.7632C15.3535 10.8682 15.4392 10.9526 15.5456 10.9526H16.4147C16.5211 10.9526 16.6068 10.8682 16.6068 10.7632V9.94322C16.6068 9.83836 16.5211 9.75391 16.4147 9.75391Z" fill="#106196"/>
<path d="M19.5483 9.10847C19.6547 9.10847 19.7404 9.02402 19.7404 8.91916V8.39879C19.7404 8.29393 19.6547 8.20947 19.5483 8.20947H18.9928C18.8865 8.20947 18.8008 8.29393 18.8008 8.39879V8.91916C18.8008 9.02402 18.8865 9.10847 18.9928 9.10847H19.5483Z" fill="#106196"/>
<path d="M23.6245 14.0557C23.7309 14.0557 23.8165 13.9713 23.8165 13.8664V13.3461C23.8165 13.2412 23.7309 13.1567 23.6245 13.1567H23.069C22.9626 13.1567 22.877 13.2412 22.877 13.3461V13.8664C22.877 13.9713 22.9626 14.0557 23.069 14.0557H23.6245Z" fill="#106196"/>
<path d="M20.3691 16.3438V18.827C20.3691 19.1335 20.622 19.3827 20.9329 19.3827H23.5666C23.8774 19.3827 24.1303 19.1335 24.1303 18.827V16.3438C24.1303 16.0373 23.8774 15.7881 23.5666 15.7881H20.9329C20.622 15.7881 20.3691 16.0373 20.3691 16.3438Z" fill="#106196"/>
<path d="M18.8008 30.1924C18.8008 30.3423 18.9237 30.4635 19.0757 30.4635H19.7804C19.9324 30.4635 20.0554 30.3423 20.0554 30.1924V29.3439C20.0554 29.194 19.9324 29.0728 19.7804 29.0728H19.0757C18.9237 29.0728 18.8008 29.194 18.8008 29.3439V30.1924Z" fill="#106196"/>
<path d="M2.10397 19.59H3.52996C3.65569 19.59 3.75795 19.4892 3.75795 19.3652V18.0167C3.75795 17.8928 3.65569 17.792 3.52996 17.792H2.10397C1.97823 17.792 1.87598 17.8928 1.87598 18.0167V19.3652C1.87736 19.4892 1.97823 19.59 2.10397 19.59Z" fill="#106196"/>
<path d="M8.02584 17.7959C7.90015 17.7959 7.79785 17.8967 7.79785 18.0206V18.6541C7.79785 18.778 7.90015 18.8788 8.02584 18.8788H8.70158C8.82727 18.8788 8.92957 18.778 8.92957 18.6541V18.0206C8.92957 17.8967 8.82727 17.7959 8.70158 17.7959H8.02584Z" fill="#106196"/>
<path d="M17.8454 2.56885C12.8932 2.56885 8.41352 4.56164 5.18434 7.77626C7.78066 5.57234 11.1577 4.23609 14.8539 4.23609C15.1524 4.23609 15.4481 4.24563 15.741 4.26334H15.2685C15.1427 4.26334 15.0405 4.36413 15.0405 4.48809V5.98643C15.0405 6.11038 15.1427 6.21118 15.2685 6.21118H16.8506C16.9763 6.21118 17.0786 6.11038 17.0786 5.98643V4.48809C17.0786 4.45539 17.0717 4.42543 17.0592 4.39819C17.7073 4.49354 18.3415 4.62974 18.9591 4.80546V5.52466C18.9591 5.64862 19.0614 5.74941 19.1871 5.74941H19.9858C20.1116 5.74941 20.2138 5.64862 20.2138 5.52466V5.22227C20.9323 5.49742 21.6246 5.82569 22.2851 6.203H21.3165C21.0539 6.203 20.8411 6.41278 20.8411 6.67158V10.5291C20.8411 10.788 21.0539 10.9977 21.3165 10.9977H25.3816C25.6441 10.9977 25.857 10.788 25.857 10.5291V9.05392C26.6542 9.92295 27.3451 10.8887 27.9144 11.9294H31.8718C32.5309 11.9294 33.0656 12.4565 33.0656 13.1063V18.6311C33.0656 19.2808 32.5309 19.8079 31.8718 19.8079H29.654C29.5808 20.9276 29.3818 22.0145 29.0668 23.0526H28.1451C27.8342 23.0526 27.5814 23.3018 27.5814 23.6083V26.372C27.294 26.8447 26.9789 27.2996 26.6418 27.7355V27.1961C26.6418 27.1253 26.5837 27.0694 26.5133 27.0694H25.8307C25.7588 27.0694 25.7022 27.1267 25.7022 27.1961V27.869C25.7022 27.9398 25.7602 27.9957 25.8307 27.9957H26.4345C26.1747 28.3157 25.9012 28.6249 25.6151 28.9219H21.8733C21.5624 28.9219 21.3095 29.1712 21.3095 29.4777V32.0235C19.3585 32.9551 17.1684 33.4782 14.8539 33.4782C14.8111 33.4782 14.7696 33.4769 14.7268 33.4769C14.7268 33.4728 14.7282 33.4687 14.7282 33.4646V29.6329C14.7282 29.3264 14.4754 29.0772 14.1644 29.0772H10.1214C9.81049 29.0772 9.55763 29.3264 9.55763 29.6329V32.5179C8.29606 32.0426 7.11881 31.401 6.04932 30.6218H7.69501C7.94368 30.6218 8.14681 30.4229 8.14681 30.1764V28.4397C8.14681 28.1946 7.94507 27.9943 7.69501 27.9943H5.93325C5.68454 27.9943 5.48142 28.1932 5.48142 28.4397V30.1764C5.48142 30.1805 5.48279 30.1846 5.48279 30.1887C2.30888 27.6334 0.227939 23.8099 0.0400188 19.5001C0.0317281 19.7139 0.0234375 19.9265 0.0234375 20.1416C0.0234375 22.4791 0.48771 24.7089 1.32783 26.748C1.49364 27.1498 1.67327 27.5435 1.86672 27.9289C1.86672 27.9289 1.86672 27.9303 1.86809 27.9303C2.06154 28.3157 2.26881 28.6917 2.48989 29.0609C2.49127 29.0636 2.49265 29.065 2.49404 29.0677C2.71374 29.4341 2.94725 29.7923 3.19182 30.141C3.19459 30.1451 3.19735 30.1478 3.19874 30.1519C3.44331 30.4993 3.70032 30.8371 3.96838 31.164C3.97253 31.1694 3.97667 31.1749 3.98082 31.1803C4.24749 31.5059 4.52662 31.8219 4.8154 32.127C4.82231 32.1338 4.82922 32.1406 4.83613 32.1488C5.12354 32.4512 5.422 32.7441 5.73014 33.026C5.7398 33.0356 5.74948 33.0437 5.75915 33.0533C6.0659 33.3325 6.38233 33.6008 6.70843 33.8582C6.72086 33.8678 6.7333 33.8787 6.74711 33.8882C6.91016 34.0163 7.07459 34.1416 7.24316 34.2642C7.24869 34.2683 7.25422 34.271 7.25837 34.275C7.41865 34.3922 7.58308 34.5066 7.74748 34.6183C7.76273 34.6292 7.77927 34.6402 7.79452 34.651C7.96308 34.7654 8.13442 34.8758 8.30715 34.9847C8.32092 34.9929 8.33617 35.0025 8.34994 35.0106C8.51166 35.1114 8.67607 35.2095 8.84187 35.3049C8.86119 35.3157 8.8792 35.3266 8.89852 35.3376C9.07263 35.437 9.24952 35.5351 9.4277 35.629C9.44987 35.6413 9.47196 35.6521 9.49544 35.6644C9.65846 35.7503 9.82434 35.8333 9.99152 35.9137C10.0122 35.9246 10.0343 35.9341 10.055 35.945C10.2347 36.0309 10.4157 36.1139 10.5981 36.1943C10.6271 36.208 10.6575 36.2202 10.6865 36.2325C10.8524 36.3046 11.0209 36.3741 11.1895 36.4408C11.2116 36.4504 11.2351 36.4599 11.2572 36.4681C11.441 36.5403 11.6275 36.6097 11.8141 36.6751C11.85 36.6874 11.8859 36.6996 11.9218 36.7133C12.0918 36.7719 12.2631 36.8291 12.4358 36.8836C12.4579 36.8903 12.4814 36.8985 12.5036 36.9053C12.6929 36.9639 12.8821 37.0184 13.0743 37.0715C13.1157 37.0824 13.1571 37.0933 13.1972 37.1042C13.3727 37.1505 13.5482 37.1955 13.725 37.2363C13.7458 37.2418 13.7678 37.2473 13.7886 37.2514C13.9821 37.2963 14.1769 37.3358 14.3731 37.3739C14.4173 37.3821 14.4629 37.3916 14.5085 37.3998C14.6909 37.4338 14.8747 37.4652 15.0584 37.4938C15.0764 37.4965 15.093 37.4992 15.1109 37.502C15.3085 37.5319 15.5075 37.5578 15.7078 37.581C15.7563 37.5864 15.8046 37.5918 15.8529 37.5973C16.0451 37.6191 16.2385 37.6368 16.4333 37.6518C16.4443 37.6531 16.454 37.6531 16.4651 37.6545C16.6682 37.6695 16.8714 37.6804 17.0758 37.6899C17.1256 37.6927 17.1767 37.694 17.2264 37.6954C17.4323 37.7022 17.6382 37.7076 17.8468 37.7076C18.0555 37.7076 18.2614 37.7022 18.4673 37.6954C18.517 37.694 18.5681 37.6913 18.6178 37.6899C18.8224 37.6817 19.0255 37.6709 19.2286 37.6545C19.2397 37.6531 19.2493 37.6531 19.2604 37.6518C19.4552 37.6368 19.6486 37.6178 19.8407 37.5973C19.8891 37.5918 19.9374 37.5864 19.9858 37.581C20.1861 37.5578 20.3851 37.5319 20.5827 37.502C20.6007 37.4992 20.6173 37.4965 20.6353 37.4938C20.819 37.4652 21.0028 37.4338 21.1852 37.3998C21.2308 37.3916 21.275 37.3835 21.3206 37.3739C21.5168 37.3358 21.7117 37.2949 21.9037 37.2514C21.9244 37.2459 21.9452 37.2404 21.9673 37.2363C22.1442 37.1955 22.321 37.1505 22.4965 37.1042C22.5379 37.0933 22.5794 37.0824 22.6195 37.0715C22.8101 37.0198 23.0009 36.9639 23.1901 36.9067C23.2136 36.8999 23.2357 36.8917 23.2592 36.8849C23.432 36.8305 23.6019 36.7746 23.7719 36.7147C23.8077 36.7024 23.8437 36.6902 23.8796 36.6765C24.0661 36.6097 24.2527 36.5417 24.4365 36.4694C24.46 36.4599 24.4821 36.4504 24.5042 36.4422C24.6728 36.3755 24.8413 36.306 25.0071 36.2338C25.0361 36.2215 25.0665 36.208 25.0956 36.1957C25.278 36.1153 25.459 36.0322 25.6386 35.9464C25.6593 35.9355 25.6815 35.926 25.7022 35.9151C25.8694 35.8347 26.0338 35.7503 26.1983 35.6644C26.2204 35.6521 26.2424 35.6413 26.2659 35.629C26.4442 35.5351 26.6197 35.4383 26.7952 35.3376C26.8145 35.3266 26.8324 35.3157 26.8518 35.3049C27.0176 35.2095 27.1807 35.1114 27.3437 35.0106C27.3575 35.0025 27.3727 34.9929 27.3866 34.9847C27.5593 34.8771 27.7306 34.7654 27.8992 34.651C27.9157 34.6402 27.931 34.6292 27.9475 34.6183C28.112 34.5066 28.275 34.3922 28.4353 34.275C28.4408 34.271 28.4464 34.2669 28.4519 34.2628C28.6191 34.1402 28.7849 34.0149 28.9465 33.8868C28.959 33.8774 28.9728 33.8664 28.9853 33.8569C29.3113 33.5994 29.6277 33.3311 29.9346 33.0519C29.9442 33.0437 29.9539 33.0342 29.9636 33.026C30.2717 32.7441 30.5701 32.4512 30.8575 32.1488C30.8645 32.142 30.8714 32.1338 30.8783 32.127C31.167 31.8219 31.4462 31.5059 31.7128 31.1803C31.717 31.1749 31.7212 31.1694 31.7253 31.164C31.9933 30.8357 32.2503 30.4979 32.495 30.1519C32.4977 30.1478 32.5005 30.1451 32.5019 30.141C32.7478 29.7923 32.98 29.4341 33.1996 29.0677C33.201 29.0663 33.2024 29.0636 33.2024 29.0622C33.4235 28.6945 33.6308 28.3171 33.8242 27.9316C33.8242 27.9316 33.8242 27.9303 33.8256 27.9303C35.0056 25.5833 35.6689 22.9395 35.6689 20.143C35.6675 10.4351 27.6877 2.56885 17.8454 2.56885Z" fill="#106196"/>
<path d="M18.8008 14.1128C18.8008 14.2368 18.903 14.3376 19.0288 14.3376H20.4548C20.5804 14.3376 20.6827 14.2368 20.6827 14.1128V12.7643C20.6827 12.6403 20.5804 12.5396 20.4548 12.5396H19.0288C18.903 12.5396 18.8008 12.6403 18.8008 12.7643V14.1128Z" fill="#106196"/>
<path d="M27.6988 20.877H26.8297C26.7234 20.877 26.6377 20.9614 26.6377 21.0663V21.8863C26.6377 21.9911 26.7234 22.0756 26.8297 22.0756H27.6988C27.8053 22.0756 27.891 21.9911 27.891 21.8863V21.0663C27.891 20.9614 27.8053 20.877 27.6988 20.877Z" fill="#106196"/>
<path d="M15.0405 20.5395V23.7051C15.0405 23.8549 14.9175 23.9761 14.7655 23.9761H11.5543C11.4023 23.9761 11.2793 23.8549 11.2793 23.7051V20.5395C11.2793 20.3897 11.4023 20.2684 11.5543 20.2684H14.7655C14.9175 20.2684 15.0405 20.3897 15.0405 20.5395ZM11.7229 25.6747C11.651 25.6747 11.5944 25.7319 11.5944 25.8014V26.4743C11.5944 26.5451 11.6523 26.601 11.7229 26.601H12.4054C12.4773 26.601 12.534 26.5438 12.534 26.4743V25.8014C12.534 25.7306 12.4759 25.6747 12.4054 25.6747H11.7229ZM8.77275 11.9962V12.4743C8.77275 12.5983 8.87505 12.6991 9.00074 12.6991H9.51476C9.64053 12.6991 9.74275 12.5983 9.74275 12.4743V11.9962C9.74275 11.8723 9.64053 11.7715 9.51476 11.7715H9.00074C8.87366 11.7715 8.77275 11.8723 8.77275 11.9962ZM13.4321 5.93751H9.6336C9.26468 5.93751 8.96626 6.23172 8.96626 6.59541V10.1874C8.96626 10.551 9.26468 10.8452 9.6336 10.8452H13.4321C13.801 10.8452 14.0995 10.551 14.0995 10.1874V6.59541C14.1009 6.23172 13.801 5.93751 13.4321 5.93751ZM14.7268 25.7919V27.1036C14.7268 27.2534 14.8498 27.3747 15.0018 27.3747H16.3324C16.4844 27.3747 16.6074 27.2534 16.6074 27.1036V25.7919C16.6074 25.642 16.4844 25.5208 16.3324 25.5208H15.0018C14.8498 25.5208 14.7268 25.642 14.7268 25.7919ZM4.04161 16.7147H7.07735C7.49327 16.7147 7.83177 16.3823 7.83177 15.9709V12.8231C7.83177 12.4131 7.49465 12.0793 7.07735 12.0793H4.04161C3.6257 12.0793 3.28717 12.4117 3.28717 12.8231V15.9709C3.28717 16.3823 3.6257 16.7147 4.04161 16.7147ZM7.35509 11.1544C7.48083 11.1544 7.58308 11.0537 7.58308 10.9297V9.37009C7.58308 9.2461 7.48083 9.14533 7.35509 9.14533H5.70941C5.58367 9.14533 5.48142 9.2461 5.48142 9.37009V10.9297C5.48142 11.0537 5.58367 11.1544 5.70941 11.1544H7.35509ZM15.8239 30.7459V31.4188C15.8239 31.4896 15.882 31.5455 15.9525 31.5455H16.635C16.7069 31.5455 16.7635 31.4883 16.7635 31.4188V30.7459C16.7635 30.6751 16.7055 30.6192 16.635 30.6192H15.9525C15.882 30.6179 15.8239 30.6751 15.8239 30.7459ZM16.4154 9.44497H15.5462C15.4398 9.44497 15.3542 9.52943 15.3542 9.63429V10.4543C15.3542 10.5592 15.4398 10.6436 15.5462 10.6436H16.4154C16.5217 10.6436 16.6074 10.5592 16.6074 10.4543V9.63429C16.6074 9.53079 16.5217 9.44497 16.4154 9.44497ZM19.5492 8.79933C19.6556 8.79933 19.7412 8.71488 19.7412 8.61002V8.08964C19.7412 7.98478 19.6556 7.90033 19.5492 7.90033H18.9937C18.8873 7.90033 18.8017 7.98478 18.8017 8.08964V8.61002C18.8017 8.71488 18.8873 8.79933 18.9937 8.79933H19.5492ZM23.624 13.7479C23.7304 13.7479 23.8161 13.6635 23.8161 13.5586V13.0382C23.8161 12.9334 23.7304 12.8489 23.624 12.8489H23.0685C22.9621 12.8489 22.8765 12.9334 22.8765 13.0382V13.5586C22.8765 13.6635 22.9621 13.7479 23.0685 13.7479H23.624ZM20.3686 16.035V18.5181C20.3686 18.8246 20.6214 19.0739 20.9323 19.0739H23.566C23.8769 19.0739 24.1297 18.8246 24.1297 18.5181V16.035C24.1297 15.7285 23.8769 15.4792 23.566 15.4792H20.9323C20.6214 15.4792 20.3686 15.7285 20.3686 16.035ZM18.8017 29.8837C18.8017 30.0335 18.9247 30.1548 19.0766 30.1548H19.7814C19.9333 30.1548 20.0563 30.0335 20.0563 29.8837V29.0351C20.0563 28.8853 19.9333 28.764 19.7814 28.764H19.0766C18.9247 28.764 18.8017 28.8853 18.8017 29.0351V29.8837ZM2.10437 19.2809H3.53036C3.6561 19.2809 3.75835 19.1801 3.75835 19.0561V17.7076C3.75835 17.5837 3.6561 17.4829 3.53036 17.4829H2.10437C1.97863 17.4829 1.87638 17.5837 1.87638 17.7076V19.0561C1.87777 19.1801 1.97863 19.2809 2.10437 19.2809ZM8.02528 17.487C7.8995 17.487 7.79729 17.5878 7.79729 17.7117V18.3451C7.79729 18.4691 7.8995 18.5699 8.02528 18.5699H8.70094C8.82671 18.5699 8.92893 18.4691 8.92893 18.3451V17.7117C8.92893 17.5878 8.82671 17.487 8.70094 17.487H8.02528ZM17.8454 2.25977C12.8932 2.25977 8.41352 4.25255 5.18434 7.46717C7.78066 5.26325 11.1577 3.92701 14.8539 3.92701C15.1524 3.92701 15.4481 3.93654 15.741 3.95425H15.2685C15.1427 3.95425 15.0405 4.05504 15.0405 4.179V5.67734C15.0405 5.80129 15.1427 5.90209 15.2685 5.90209H16.8506C16.9763 5.90209 17.0786 5.80129 17.0786 5.67734V4.179C17.0786 4.14631 17.0717 4.11634 17.0592 4.0891C17.7073 4.18445 18.3415 4.32066 18.9591 4.49637V5.21558C18.9591 5.33953 19.0614 5.44033 19.1871 5.44033H19.9858C20.1116 5.44033 20.2138 5.33953 20.2138 5.21558V4.91318C20.9323 5.18833 21.6246 5.51661 22.2851 5.89391H21.3165C21.0539 5.89391 20.8411 6.10369 20.8411 6.36249V10.2201C20.8411 10.4788 21.0539 10.6886 21.3165 10.6886H25.3816C25.6441 10.6886 25.857 10.4788 25.857 10.2201V8.74485C26.6542 9.61388 27.3451 10.5797 27.9144 11.6203H31.8718C32.5309 11.6203 33.0656 12.1474 33.0656 12.7972V18.3219C33.0656 18.9717 32.5309 19.4989 31.8718 19.4989H29.654C29.5808 20.6185 29.3818 21.7055 29.0668 22.7434H28.1451C27.8342 22.7434 27.5814 22.9927 27.5814 23.2991V26.0629C27.294 26.5356 26.9789 26.9905 26.6418 27.4264V26.887C26.6418 26.8162 26.5837 26.7603 26.5133 26.7603H25.8307C25.7588 26.7603 25.7022 26.8175 25.7022 26.887V27.5599C25.7022 27.6307 25.7602 27.6865 25.8307 27.6865H26.4345C26.1747 28.0067 25.9012 28.3159 25.6151 28.6129H21.8733C21.5624 28.6129 21.3095 28.8621 21.3095 29.1686V31.7144C19.3585 32.6461 17.1684 33.1692 14.8539 33.1692C14.8111 33.1692 14.7696 33.1678 14.7268 33.1678C14.7268 33.1637 14.7282 33.1596 14.7282 33.1555V29.3238C14.7282 29.0174 14.4754 28.7681 14.1644 28.7681H10.1214C9.81049 28.7681 9.55763 29.0174 9.55763 29.3238V32.2089C8.29606 31.7335 7.11881 31.0919 6.04932 30.3128H7.69501C7.94368 30.3128 8.14681 30.1139 8.14681 29.8674V28.1279C8.14681 27.8827 7.94507 27.6825 7.69501 27.6825H5.93325C5.68454 27.6825 5.48142 27.8814 5.48142 28.1279V29.8646C5.48142 29.8687 5.48279 29.8728 5.48279 29.8769C2.30888 27.3215 0.227939 23.498 0.0400188 19.1883C0.0317281 19.4021 0.0234375 19.6146 0.0234375 19.8298C0.0234375 22.1673 0.48771 24.397 1.32783 26.4362C1.49364 26.838 1.67327 27.2317 1.86672 27.6171C1.86672 27.6171 1.86672 27.6185 1.86809 27.6185C2.06154 28.0039 2.26881 28.3799 2.48989 28.7491C2.49127 28.7518 2.49265 28.7532 2.49404 28.7558C2.71374 29.1222 2.94725 29.4805 3.19182 29.8292C3.19459 29.8333 3.19735 29.836 3.19874 29.8401C3.44331 30.1875 3.70032 30.5253 3.96838 30.8522C3.97253 30.8576 3.97667 30.8631 3.98082 30.8685C4.24749 31.1941 4.52662 31.5101 4.8154 31.8152C4.82231 31.822 4.82922 31.8288 4.83613 31.837C5.12354 32.1394 5.422 32.4323 5.73014 32.7142C5.7398 32.7237 5.74948 32.7319 5.75915 32.7415C6.0659 33.0207 6.38233 33.289 6.70843 33.5464C6.72086 33.556 6.7333 33.5669 6.74711 33.5764C6.91016 33.7045 7.07459 33.8298 7.24316 33.9524C7.24869 33.9565 7.25422 33.9591 7.25837 33.9632C7.41865 34.0804 7.58308 34.1948 7.74748 34.3065C7.76273 34.3174 7.77927 34.3283 7.79452 34.3392C7.96308 34.4536 8.13442 34.564 8.30715 34.6729C8.32092 34.6811 8.33617 34.6906 8.34994 34.6988C8.51166 34.7996 8.67607 34.8977 8.84187 34.9931C8.86119 35.0039 8.8792 35.0148 8.89852 35.0258C9.07263 35.1252 9.24952 35.2232 9.4277 35.3172C9.44987 35.3295 9.47196 35.3403 9.49544 35.3526C9.65846 35.4385 9.82434 35.5215 9.99152 35.6019C10.0122 35.6128 10.0343 35.6223 10.055 35.6332C10.2347 35.7191 10.4157 35.8021 10.5981 35.8825C10.6271 35.8962 10.6575 35.9084 10.6865 35.9207C10.8524 35.9928 11.0209 36.0623 11.1895 36.129C11.2116 36.1386 11.2351 36.1481 11.2572 36.1563C11.441 36.2285 11.6275 36.2979 11.8141 36.3633C11.85 36.3755 11.8859 36.3878 11.9218 36.4015C12.0918 36.46 12.2631 36.5172 12.4358 36.5718C12.4579 36.5785 12.4814 36.5867 12.5036 36.5935C12.6929 36.6521 12.8821 36.7066 13.0743 36.7597C13.1157 36.7706 13.1571 36.7815 13.1972 36.7924C13.3727 36.8387 13.5482 36.8836 13.725 36.9245C13.7458 36.93 13.7678 36.9355 13.7886 36.9395C13.9821 36.9845 14.1769 37.0239 14.3731 37.0621C14.4173 37.0703 14.4629 37.0798 14.5085 37.088C14.6909 37.122 14.8747 37.1534 15.0584 37.182C15.0764 37.1847 15.093 37.1874 15.1109 37.1902C15.3085 37.2201 15.5075 37.246 15.7078 37.2692C15.7563 37.2746 15.8046 37.28 15.8529 37.2855C16.0451 37.3073 16.2385 37.325 16.4333 37.34C16.4443 37.3413 16.454 37.3413 16.4651 37.3427C16.6682 37.3577 16.8714 37.3686 17.0758 37.3781C17.1256 37.3809 17.1767 37.3822 17.2264 37.3836C17.4323 37.3903 17.6382 37.3958 17.8468 37.3958C18.0555 37.3958 18.2614 37.3903 18.4673 37.3836C18.517 37.3822 18.5681 37.3795 18.6178 37.3781C18.8224 37.3699 19.0255 37.3591 19.2286 37.3427C19.2397 37.3413 19.2493 37.3413 19.2604 37.34C19.4552 37.325 19.6486 37.3059 19.8407 37.2855C19.8891 37.28 19.9374 37.2746 19.9858 37.2692C20.1861 37.246 20.3851 37.2201 20.5827 37.1902C20.6007 37.1874 20.6173 37.1847 20.6353 37.182C20.819 37.1534 21.0028 37.122 21.1852 37.088C21.2308 37.0798 21.275 37.0717 21.3206 37.0621C21.5168 37.0239 21.7117 36.9831 21.9037 36.9395C21.9244 36.9341 21.9452 36.9286 21.9673 36.9245C22.1442 36.8836 22.321 36.8387 22.4965 36.7924C22.5379 36.7815 22.5794 36.7706 22.6195 36.7597C22.8101 36.708 23.0009 36.6521 23.1901 36.5949C23.2136 36.5881 23.2357 36.5799 23.2592 36.5731C23.432 36.5186 23.6019 36.4627 23.7719 36.4029C23.8077 36.3906 23.8437 36.3783 23.8796 36.3647C24.0661 36.2979 24.2527 36.2299 24.4365 36.1576C24.46 36.1481 24.4821 36.1386 24.5042 36.1304C24.6728 36.0637 24.8413 35.9942 25.0071 35.922C25.0361 35.9097 25.0665 35.8962 25.0956 35.8839C25.278 35.8035 25.459 35.7204 25.6386 35.6346C25.6593 35.6237 25.6815 35.6142 25.7022 35.6033C25.8694 35.5229 26.0338 35.4385 26.1983 35.3526C26.2204 35.3403 26.2424 35.3295 26.2659 35.3172C26.4442 35.2232 26.6197 35.1265 26.7952 35.0258C26.8145 35.0148 26.8324 35.0039 26.8518 34.9931C27.0176 34.8977 27.1807 34.7996 27.3437 34.6988C27.3575 34.6906 27.3727 34.6811 27.3866 34.6729C27.5593 34.5653 27.7306 34.4536 27.8992 34.3392C27.9157 34.3283 27.931 34.3174 27.9475 34.3065C28.112 34.1948 28.275 34.0804 28.4353 33.9632C28.4408 33.9591 28.4464 33.9551 28.4519 33.951C28.6191 33.8284 28.7849 33.7031 28.9465 33.575C28.959 33.5655 28.9728 33.5546 28.9853 33.5451C29.3113 33.2876 29.6277 33.0193 29.9346 32.7401C29.9442 32.7319 29.9539 32.7223 29.9636 32.7142C30.2717 32.4323 30.5701 32.1394 30.8575 31.837C30.8645 31.8302 30.8714 31.822 30.8783 31.8152C31.167 31.5101 31.4462 31.1941 31.7128 30.8685C31.717 30.8631 31.7212 30.8576 31.7253 30.8522C31.9933 30.5239 32.2503 30.1861 32.495 29.8401C32.4977 29.836 32.5005 29.8333 32.5019 29.8292C32.7478 29.4805 32.98 29.1222 33.1996 28.7558C33.201 28.7544 33.2024 28.7518 33.2024 28.7504C33.4235 28.3827 33.6308 28.0053 33.8242 27.6199C33.8242 27.6199 33.8242 27.6185 33.8256 27.6185C35.0056 25.2715 35.6689 22.6276 35.6689 19.8312C35.6675 10.1261 27.6877 2.25977 17.8454 2.25977ZM18.8017 13.8038C18.8017 13.9278 18.9039 14.0285 19.0296 14.0285H20.4556C20.5814 14.0285 20.6836 13.9278 20.6836 13.8038V12.4553C20.6836 12.3313 20.5814 12.2305 20.4556 12.2305H19.0296C18.9039 12.2305 18.8017 12.3313 18.8017 12.4553V13.8038ZM27.6988 20.722H26.8297C26.7233 20.722 26.6376 20.8065 26.6376 20.9113V21.7313C26.6376 21.8362 26.7233 21.9207 26.8297 21.9207H27.6988C27.8052 21.9207 27.8909 21.8362 27.8909 21.7313V20.9113C27.8909 20.8078 27.8052 20.722 27.6988 20.722Z" fill="url(#paint1_linear_186_14067)"/>
<path d="M12.4041 25.6746C12.4759 25.6746 12.5326 25.7318 12.5326 25.8012V26.4742C12.5326 26.545 12.4746 26.6008 12.4041 26.6008H11.7215C11.6497 26.6008 11.593 26.5436 11.593 26.4742V25.8012C11.593 25.7305 11.651 25.6746 11.7215 25.6746H12.4041ZM15.9538 31.5453H16.6364C16.7082 31.5453 16.7649 31.4881 16.7649 31.4187V30.7458C16.7649 30.675 16.7069 30.6191 16.6364 30.6191H15.9538C15.882 30.6191 15.8253 30.6763 15.8253 30.7458V31.4187C15.8239 31.4881 15.882 31.5453 15.9538 31.5453ZM16.6074 27.1035V25.7918C16.6074 25.6419 16.4844 25.5206 16.3324 25.5206H15.0018C14.8498 25.5206 14.7268 25.6419 14.7268 25.7918V27.1035C14.7268 27.2533 14.8498 27.3746 15.0018 27.3746H16.3324C16.4844 27.3746 16.6074 27.2533 16.6074 27.1035ZM27.5772 23.7445V26.0587C27.2898 26.5314 26.9748 26.9863 26.6376 27.4222V26.8828C26.6376 26.812 26.5796 26.7562 26.5092 26.7562H25.8266C25.7547 26.7562 25.698 26.8134 25.698 26.8828V27.5557C25.698 27.6266 25.7561 27.6824 25.8266 27.6824H26.4303C26.1706 28.0025 25.897 28.3117 25.611 28.6087H21.8733C21.5624 28.6087 21.3095 28.8579 21.3095 29.1644V31.7102C19.3585 32.6419 17.1684 33.165 14.8539 33.165C14.8111 33.165 14.7696 33.1636 14.7268 33.1636C14.7268 33.1595 14.7282 33.1554 14.7282 33.1513V29.3196C14.7282 29.0132 14.4754 28.7639 14.1644 28.7639H10.1214C9.81049 28.7639 9.55763 29.0132 9.55763 29.3196V32.2047C8.29606 31.7293 7.11881 31.0877 6.04932 30.3085H7.69501C7.94368 30.3085 8.14681 30.1097 8.14681 29.8631V28.1278C8.14681 27.8827 7.94507 27.6824 7.69501 27.6824H5.93325C5.68454 27.6824 5.48142 27.8813 5.48142 28.1278V29.8645C5.48142 29.8686 5.48279 29.8727 5.48279 29.8768C2.30888 27.3214 0.227939 23.4979 0.0400188 19.1882C0.0317281 19.402 0.0234375 19.6145 0.0234375 19.8297C0.0234375 22.1672 0.48771 24.3969 1.32783 26.436C1.49364 26.8379 1.67327 27.2315 1.86672 27.617C1.86672 27.617 1.86672 27.6184 1.86809 27.6184C2.06154 28.0038 2.26881 28.3798 2.48989 28.7489C2.49127 28.7517 2.49265 28.753 2.49404 28.7557C2.71374 29.1221 2.94725 29.4804 3.19182 29.8291C3.19459 29.8332 3.19735 29.8359 3.19874 29.84C3.44331 30.1874 3.70032 30.5252 3.96838 30.8521C3.97253 30.8575 3.97667 30.863 3.98082 30.8684C4.24749 31.194 4.52662 31.51 4.8154 31.8151C4.82231 31.8218 4.82922 31.8287 4.83613 31.8369C5.12354 32.1392 5.422 32.4321 5.73014 32.7141C5.7398 32.7236 5.74948 32.7318 5.75915 32.7413C6.0659 33.0206 6.38233 33.2889 6.70843 33.5463C6.72086 33.5559 6.7333 33.5667 6.74711 33.5763C6.91016 33.7044 7.07459 33.8297 7.24316 33.9523C7.24869 33.9564 7.25422 33.959 7.25837 33.9631C7.41865 34.0803 7.58308 34.1947 7.74748 34.3064C7.76273 34.3173 7.77927 34.3282 7.79452 34.3391C7.96308 34.4535 8.13442 34.5638 8.30715 34.6728C8.32092 34.681 8.33617 34.6905 8.34994 34.6987C8.51166 34.7995 8.67607 34.8976 8.84187 34.9929C8.86119 35.0038 8.8792 35.0147 8.89852 35.0256C9.07263 35.125 9.24952 35.2232 9.4277 35.3171C9.44987 35.3294 9.47196 35.3402 9.49544 35.3525C9.65846 35.4383 9.82434 35.5214 9.99152 35.6018C10.0122 35.6127 10.0343 35.6222 10.055 35.6331C10.2347 35.7189 10.4157 35.802 10.5981 35.8824C10.6271 35.896 10.6575 35.9083 10.6865 35.9205C10.8524 35.9927 11.0209 36.0622 11.1895 36.1289C11.2116 36.1385 11.2351 36.148 11.2572 36.1561C11.441 36.2284 11.6275 36.2978 11.8141 36.3632C11.85 36.3755 11.8859 36.3877 11.9218 36.4014C12.0918 36.46 12.2631 36.5171 12.4358 36.5717C12.4579 36.5784 12.4814 36.5866 12.5036 36.5934C12.6929 36.652 12.8821 36.7065 13.0743 36.7596C13.1157 36.7705 13.1571 36.7814 13.1972 36.7923C13.3727 36.8386 13.5482 36.8835 13.725 36.9244C13.7458 36.9299 13.7678 36.9353 13.7886 36.9394C13.9821 36.9844 14.1769 37.0238 14.3731 37.062C14.4173 37.0702 14.4629 37.0797 14.5085 37.0879C14.6909 37.1219 14.8747 37.1533 15.0584 37.1819C15.0764 37.1846 15.093 37.1873 15.1109 37.1901C15.3085 37.22 15.5075 37.2459 15.7078 37.269C15.7563 37.2745 15.8046 37.2799 15.8529 37.2854C16.0451 37.3071 16.2385 37.3249 16.4333 37.3398C16.4443 37.3412 16.454 37.3412 16.4651 37.3426C16.6682 37.3576 16.8714 37.3684 17.0758 37.378C17.1256 37.3807 17.1767 37.3821 17.2264 37.3835C17.4323 37.3902 17.6382 37.3957 17.8468 37.3957C18.0555 37.3957 18.2614 37.3902 18.4673 37.3835C18.517 37.3821 18.5681 37.3794 18.6178 37.378C18.8224 37.3698 19.0255 37.359 19.2286 37.3426C19.2397 37.3412 19.2493 37.3412 19.2604 37.3398C19.4552 37.3249 19.6486 37.3058 19.8407 37.2854C19.8891 37.2799 19.9374 37.2745 19.9858 37.269C20.1861 37.2459 20.3851 37.22 20.5827 37.1901C20.6007 37.1873 20.6173 37.1846 20.6353 37.1819C20.819 37.1533 21.0028 37.1219 21.1852 37.0879C21.2308 37.0797 21.275 37.0715 21.3206 37.062C21.5168 37.0238 21.7117 36.983 21.9037 36.9394C21.9244 36.934 21.9452 36.9285 21.9673 36.9244C22.1442 36.8835 22.321 36.8386 22.4965 36.7923C22.5379 36.7814 22.5794 36.7705 22.6195 36.7596C22.8101 36.7079 23.0009 36.652 23.1901 36.5948C23.2136 36.588 23.2357 36.5798 23.2592 36.5729C23.432 36.5185 23.6019 36.4626 23.7719 36.4028C23.8077 36.3905 23.8437 36.3782 23.8796 36.3646C24.0661 36.2978 24.2527 36.2297 24.4365 36.1575C24.46 36.148 24.4821 36.1385 24.5042 36.1303C24.6728 36.0636 24.8413 35.9941 25.0071 35.9219C25.0361 35.9096 25.0665 35.896 25.0956 35.8837C25.278 35.8034 25.459 35.7203 25.6386 35.6345C25.6593 35.6236 25.6815 35.6141 25.7022 35.6031C25.8694 35.5228 26.0338 35.4383 26.1983 35.3525C26.2204 35.3402 26.2424 35.3294 26.2659 35.3171C26.4442 35.2232 26.6197 35.1264 26.7952 35.0256C26.8145 35.0147 26.8324 35.0038 26.8518 34.9929C27.0176 34.8976 27.1807 34.7995 27.3437 34.6987C27.3575 34.6905 27.3727 34.681 27.3866 34.6728C27.5593 34.5652 27.7306 34.4535 27.8992 34.3391C27.9157 34.3282 27.931 34.3173 27.9475 34.3064C28.112 34.1947 28.275 34.0803 28.4353 33.9631C28.4408 33.959 28.4464 33.955 28.4519 33.9509C28.6191 33.8283 28.7849 33.703 28.9465 33.5749C28.959 33.5654 28.9728 33.5545 28.9853 33.545C29.3113 33.2875 29.6277 33.0192 29.9346 32.74C29.9442 32.7318 29.9539 32.7222 29.9636 32.7141C30.2717 32.4321 30.5701 32.1392 30.8575 31.8369C30.8645 31.83 30.8714 31.8218 30.8783 31.8151C31.167 31.51 31.4462 31.194 31.7128 30.8684C31.717 30.863 31.7212 30.8575 31.7253 30.8521C31.9933 30.5238 32.2503 30.186 32.495 29.84C32.4977 29.8359 32.5005 29.8332 32.5019 29.8291C32.7478 29.4804 32.98 29.1221 33.1996 28.7557C33.201 28.7543 33.2024 28.7517 33.2024 28.7503C33.4235 28.3825 33.6308 28.0052 33.8242 27.6197C33.8242 27.6197 33.8242 27.6184 33.8256 27.6184C35.0056 25.2714 35.6689 22.6275 35.6689 19.8311C35.6689 19.4906 35.6578 19.1514 35.6385 18.8149C33.3544 20.9739 30.6158 22.6684 27.5772 23.7445ZM19.0766 30.1547H19.7814C19.9333 30.1547 20.0563 30.0334 20.0563 29.8835V29.035C20.0563 28.8851 19.9333 28.7639 19.7814 28.7639H19.0766C18.9247 28.7639 18.8017 28.8851 18.8017 29.035V29.8835C18.8017 30.0334 18.9247 30.1547 19.0766 30.1547Z" fill="url(#paint2_linear_186_14067)"/>
<path d="M168.849 14.8605C170.71 14.8605 172.218 13.3736 172.218 11.5396C172.218 9.70554 170.71 8.21875 168.849 8.21875C166.988 8.21875 165.48 9.70554 165.48 11.5396C165.48 13.3736 166.988 14.8605 168.849 14.8605Z" fill="#BE0A0B"/>
<path d="M31.507 12.4453H26.7662C26.2618 12.4453 25.8528 12.8485 25.8528 13.3457V17.823C25.8528 17.9511 25.8805 18.0736 25.9302 18.184L23.9114 20.1741C23.8838 20.1714 23.8562 20.17 23.8285 20.17H19.0877C19.0642 20.17 19.042 20.1714 19.0186 20.1741L16.9915 18.1758C17.0385 18.0682 17.0634 17.9497 17.0634 17.8244V13.347C17.0634 12.8499 16.6544 12.4467 16.1501 12.4467H11.4092C10.9049 12.4467 10.4959 12.8499 10.4959 13.347V17.8244C10.4959 17.9525 10.5235 18.075 10.5732 18.1853L8.55447 20.1755C8.52684 20.1727 8.4992 20.1714 8.47157 20.1714H3.73073C3.22639 20.1714 2.81738 20.5745 2.81738 21.0717V25.549C2.81738 26.0462 3.22639 26.4494 3.73073 26.4494H8.47157C8.97589 26.4494 9.38492 26.0462 9.38492 25.549V21.0717C9.38492 20.9328 9.35174 20.8006 9.29371 20.6835L11.289 18.7165C11.3291 18.722 11.3691 18.7247 11.4092 18.7247H16.1501C16.1956 18.7247 16.2399 18.7206 16.2827 18.7139L18.2697 20.6726C18.2089 20.7925 18.1743 20.9273 18.1743 21.0717V25.549C18.1743 26.0462 18.5834 26.4494 19.0877 26.4494H23.8285C24.3329 26.4494 24.7419 26.0462 24.7419 25.549V21.0717C24.7419 20.9328 24.7087 20.8006 24.6507 20.6835L26.6459 18.7165C26.686 18.722 26.7261 18.7247 26.7662 18.7247H31.507C32.0113 18.7247 32.4204 18.3216 32.4204 17.8244V13.347C32.4204 12.8485 32.0113 12.4453 31.507 12.4453Z" fill="url(#paint3_linear_186_14067)"/>
<path d="M51.4827 13.9341H50.684C45.5383 13.9341 41.3682 18.0464 41.3682 23.1176V23.7509C41.3682 28.8235 45.5397 32.9344 50.684 32.9344H51.4827C56.6284 32.9344 60.7986 28.8222 60.7986 23.7509V23.1176C60.7986 18.0464 56.627 13.9341 51.4827 13.9341ZM57.3511 23.9444C57.3511 27.0759 54.7754 29.6136 51.6001 29.6136H50.7227C47.546 29.6136 44.9718 27.0745 44.9718 23.9444V23.0794C44.9718 19.9479 47.546 17.4103 50.7227 17.4103H51.6001C54.7768 17.4103 57.3511 19.9493 57.3511 23.0794V23.9444Z" fill="#005192"/>
<path d="M78.1154 14.3975C77.1205 14.3975 76.3136 15.193 76.3136 16.1737V26.1404L67.7286 15.539C67.6485 15.4381 67.5601 15.3468 67.4703 15.2597C67.2049 14.8361 66.731 14.5514 66.1894 14.5514H66.0912C65.7666 14.4997 65.4446 14.5187 65.1489 14.6181C64.9665 14.674 64.7979 14.7639 64.6528 14.8797C64.6487 14.8838 64.6432 14.8865 64.639 14.8892C64.5837 14.9328 64.534 14.9818 64.4884 15.0336C64.2424 15.2978 64.0918 15.6493 64.0918 16.0348V31.1407C64.0918 31.9608 64.7662 32.6241 65.5966 32.6241H66.1908C67.0226 32.6241 67.6955 31.9594 67.6955 31.1407V20.9166L76.4227 31.7796C76.6548 32.0684 76.9533 32.2822 77.278 32.4197C77.5281 32.5506 77.8141 32.6241 78.1168 32.6241C78.6363 32.6241 79.1019 32.4062 79.4308 32.0602C79.5718 31.9171 79.6795 31.7605 79.75 31.593C79.8564 31.3655 79.9186 31.1135 79.9186 30.8465V16.1751C79.9172 15.193 79.1102 14.3975 78.1154 14.3975Z" fill="#005192"/>
<path d="M91.5681 14.422C91.5004 14.407 91.4303 14.3975 91.357 14.3975H84.4194H84.1912H84.148C83.6288 14.3975 83.209 14.8129 83.209 15.3237V15.3564C83.209 15.3578 83.209 15.3591 83.209 15.3619C83.209 15.3632 83.209 15.3646 83.209 15.3673V25.2114V25.244V31.6569C83.209 32.1923 83.6492 32.6268 84.1928 32.6268H84.4203C84.964 32.6268 85.4041 32.1923 85.4041 31.6569V26.1704H90.4188C90.4726 26.1704 90.5239 26.1649 90.5753 26.1567C91.7303 26.0627 97.0001 25.3571 97.0001 20.2682C96.9985 15.3496 92.8356 14.5501 91.5681 14.422ZM90.3511 24.2852H85.4033V16.2854H91.1719C92.1403 16.408 94.9623 17.1803 94.9623 19.9604C94.9623 22.7405 93.2627 23.976 90.3511 24.2852Z" fill="#005192"/>
<path d="M107.822 14.7994C107.822 14.7994 107.654 14.0884 106.714 14.0884C105.774 14.0884 105.461 14.3976 105.328 14.6319V14.6333C105.307 14.6672 105.288 14.7013 105.271 14.7381L97.6796 31.3425C97.4571 31.8287 97.6771 32.4022 98.1703 32.6215C98.6634 32.8408 99.2454 32.6242 99.468 32.1379L101.504 27.6838H111.536L113.562 32.1352C113.782 32.6228 114.363 32.8394 114.858 32.6215C115.352 32.4036 115.572 31.8314 115.351 31.3438L107.822 14.7994ZM102.351 25.83L106.531 16.6873L110.691 25.83H102.351Z" fill="#005192"/>
<path d="M192.982 30.6178H182.56V24.4392H191.728C192.29 24.4392 192.747 23.9897 192.747 23.4354C192.747 22.8809 192.29 22.4314 191.728 22.4314H182.56V16.2528H192.824C193.386 16.2528 193.842 15.8033 193.842 15.249C193.842 14.6946 193.386 14.2451 192.824 14.2451H181.541C180.978 14.2451 180.522 14.6946 180.522 15.249V31.6245C180.522 32.1788 180.978 32.6283 181.541 32.6283H192.98C193.542 32.6283 193.998 32.1788 193.998 31.6245C194 31.0673 193.544 30.6178 192.982 30.6178Z" fill="#005192"/>
<path d="M127.243 22.7392C122.699 21.813 121.288 21.0392 121.131 19.1867C121.014 17.7932 121.755 15.9421 125.049 15.9421C128.026 15.9421 129.393 17.2975 129.728 17.4691C129.891 17.5781 130.087 17.6407 130.298 17.6407C130.861 17.6407 131.316 17.1912 131.316 16.6369C131.316 16.3849 131.221 16.1547 131.065 15.9776C130.998 15.9027 130.923 15.8386 130.839 15.7855C130.072 15.1916 128.105 14.0869 124.891 14.0869C121.288 14.0869 119.719 16.0947 119.093 17.9486C118.467 19.8024 119.249 21.9655 121.13 23.047C123.011 24.1285 127.086 24.4377 128.495 25.364C129.906 26.2902 130.689 27.8362 129.278 29.6887C127.867 31.5426 123.282 31.6025 120.169 28.8688C119.988 28.7066 119.748 28.6072 119.485 28.6072C118.922 28.6072 118.466 29.0567 118.466 29.6111C118.466 29.8985 118.589 30.156 118.784 30.3398C118.798 30.3535 118.814 30.3684 118.833 30.3848C118.835 30.3862 118.837 30.3875 118.838 30.3875C119.432 30.9051 122.041 32.7794 125.675 32.7794C129.436 32.7794 131.249 31.1094 131.942 28.9178C132.727 26.4469 131.457 23.5987 127.243 22.7392Z" fill="#005192"/>
<path d="M155.215 14.2437C154.653 14.2437 154.196 14.6932 154.196 15.2475V31.623C154.196 32.1774 154.653 32.6269 155.215 32.6269C155.778 32.6269 156.233 32.1774 156.233 31.623V15.2475C156.233 14.6932 155.778 14.2437 155.215 14.2437Z" fill="#005192"/>
<path d="M144.323 22.7392C139.779 21.813 138.368 21.0392 138.212 19.1867C138.095 17.7932 138.835 15.9421 142.13 15.9421C145.107 15.9421 146.474 17.2975 146.808 17.4691C146.971 17.5781 147.167 17.6407 147.378 17.6407C147.941 17.6407 148.397 17.1912 148.397 16.6369C148.397 16.3849 148.302 16.1547 148.145 15.9776C148.079 15.9027 148.004 15.8386 147.919 15.7855C147.152 15.1916 145.186 14.0869 141.972 14.0869C138.368 14.0869 136.8 16.0947 136.174 17.9486C135.547 19.8024 136.33 21.9655 138.211 23.047C140.091 24.1285 144.166 24.4377 145.575 25.364C146.986 26.2902 147.77 27.8362 146.359 29.6887C144.949 31.5426 140.362 31.6025 137.249 28.8688C137.068 28.7066 136.829 28.6072 136.565 28.6072C136.003 28.6072 135.547 29.0567 135.547 29.6111C135.547 29.8985 135.67 30.156 135.865 30.3398C135.879 30.3535 135.895 30.3684 135.915 30.3848C135.915 30.3862 135.917 30.3875 135.919 30.3875C136.513 30.9051 139.121 32.7794 142.755 32.7794C146.517 32.7794 148.33 31.1094 149.023 28.9178C149.808 26.4469 148.537 23.5987 144.323 22.7392Z" fill="#005192"/>
<path d="M51.4827 13.4712H50.684C45.5383 13.4712 41.3682 17.5835 41.3682 22.6547V23.288C41.3682 28.3606 45.5397 32.4715 50.684 32.4715H51.4827C56.6284 32.4715 60.7986 28.3593 60.7986 23.288V22.6547C60.7986 17.5821 56.627 13.4712 51.4827 13.4712ZM57.3511 23.4815C57.3511 26.613 54.7754 29.1507 51.6001 29.1507H50.7227C47.546 29.1507 44.9718 26.6116 44.9718 23.4815V22.6165C44.9718 19.485 47.546 16.9473 50.7227 16.9473H51.6001C54.7768 16.9473 57.3511 19.4863 57.3511 22.6165V23.4815Z" fill="url(#paint4_linear_186_14067)"/>
<path d="M78.1154 13.9341C77.1205 13.9341 76.3136 14.7296 76.3136 15.7103V25.677L67.7286 15.0756C67.6485 14.9747 67.5601 14.8835 67.4703 14.7964C67.2049 14.3727 66.731 14.088 66.1894 14.088H66.0912C65.7666 14.0363 65.4446 14.0553 65.1489 14.1548C64.9665 14.2107 64.7979 14.3005 64.6528 14.4163C64.6487 14.4204 64.6432 14.4231 64.639 14.4258C64.5837 14.4694 64.534 14.5185 64.4884 14.5702C64.2424 14.8344 64.0918 15.1859 64.0918 15.5714V30.6774C64.0918 31.4974 64.7662 32.1607 65.5966 32.1607H66.1908C67.0226 32.1607 67.6955 31.496 67.6955 30.6774V20.4533L76.4227 31.3162C76.6548 31.605 76.9533 31.8189 77.278 31.9564C77.5281 32.0872 77.8141 32.1607 78.1168 32.1607C78.6363 32.1607 79.1019 31.9428 79.4308 31.5968C79.5718 31.4538 79.6795 31.2971 79.75 31.1296C79.8564 30.9021 79.9186 30.6501 79.9186 30.3832V15.7103C79.9172 14.7296 79.1102 13.9341 78.1154 13.9341Z" fill="url(#paint5_linear_186_14067)"/>
<path d="M91.5681 13.9587C91.5004 13.9436 91.4303 13.9341 91.357 13.9341H84.4194H84.1912H84.148C83.6288 13.9341 83.209 14.3496 83.209 14.8604V14.893C83.209 14.8944 83.209 14.8958 83.209 14.8985C83.209 14.8999 83.209 14.9012 83.209 14.904V24.748V24.7808V31.1936C83.209 31.729 83.6492 32.1634 84.1928 32.1634H84.4203C84.964 32.1634 85.4041 31.729 85.4041 31.1936V25.707H90.4188C90.4726 25.707 90.5239 25.7015 90.5753 25.6933C91.7303 25.5994 97.0001 24.8938 97.0001 19.8049C96.9985 14.8863 92.8356 14.0867 91.5681 13.9587ZM90.3511 23.8204H85.4033V15.8206H91.1719C92.1403 15.9433 94.9623 16.7156 94.9623 19.4957C94.9623 22.2758 93.2627 23.5126 90.3511 23.8204Z" fill="url(#paint6_linear_186_14067)"/>
<path d="M107.822 14.3361C107.822 14.3361 107.654 13.625 106.714 13.625C105.774 13.625 105.461 13.9343 105.328 14.1685V14.1699C105.307 14.204 105.288 14.238 105.271 14.2747L97.6796 30.8791C97.4571 31.3654 97.6771 31.9388 98.1703 32.1582C98.6634 32.3775 99.2454 32.1608 99.468 31.6746L101.504 27.2204H111.536L113.562 31.6719C113.782 32.1595 114.363 32.3761 114.858 32.1582C115.352 31.9402 115.572 31.3681 115.351 30.8805L107.822 14.3361ZM102.351 25.3652L106.531 16.2226L110.691 25.3652H102.351Z" fill="url(#paint7_linear_186_14067)"/>
<path d="M192.982 30.1545H182.56V23.9759H191.728C192.29 23.9759 192.747 23.5264 192.747 22.972C192.747 22.4176 192.29 21.9681 191.728 21.9681H182.56V15.7895H192.824C193.386 15.7895 193.842 15.34 193.842 14.7856C193.842 14.2312 193.386 13.7817 192.824 13.7817H181.541C180.978 13.7817 180.522 14.2312 180.522 14.7856V31.1611C180.522 31.7155 180.978 32.165 181.541 32.165H192.98C193.542 32.165 193.998 31.7155 193.998 31.1611C193.998 30.6067 193.544 30.1545 192.982 30.1545Z" fill="url(#paint8_linear_186_14067)"/>
<path d="M127.243 22.2762C122.699 21.35 121.288 20.5763 121.131 18.7238C121.014 17.3304 121.755 15.4792 125.049 15.4792C128.026 15.4792 129.393 16.8346 129.728 17.0061C129.891 17.1152 130.087 17.1778 130.298 17.1778C130.861 17.1778 131.316 16.7283 131.316 16.1739C131.316 15.9219 131.221 15.6917 131.065 15.5146C130.998 15.4397 130.923 15.3757 130.839 15.3225C130.072 14.7287 128.105 13.624 124.891 13.624C121.288 13.624 119.719 15.6317 119.093 17.4856C118.466 19.3394 119.249 21.5026 121.13 22.5841C123.011 23.6656 127.086 23.9748 128.495 24.9011C129.906 25.8273 130.689 27.3733 129.278 29.2258C127.867 31.0797 123.282 31.1396 120.169 28.4058C119.988 28.2437 119.748 28.1442 119.485 28.1442C118.922 28.1442 118.466 28.5937 118.466 29.1482C118.466 29.4355 118.589 29.693 118.784 29.8769C118.798 29.8905 118.814 29.9055 118.833 29.9218C118.835 29.9232 118.837 29.9246 118.838 29.9246C119.432 30.4422 122.041 32.3165 125.675 32.3165C129.436 32.3165 131.249 30.6465 131.942 28.4548C132.727 25.9839 131.457 23.1357 127.243 22.2762Z" fill="url(#paint9_linear_186_14067)"/>
<path d="M155.215 13.7803C154.653 13.7803 154.196 14.2298 154.196 14.7841V31.1596C154.196 31.714 154.653 32.1635 155.215 32.1635C155.778 32.1635 156.233 31.714 156.233 31.1596V14.7841C156.233 14.2298 155.778 13.7803 155.215 13.7803Z" fill="url(#paint10_linear_186_14067)"/>
<path d="M144.323 22.2762C139.779 21.35 138.368 20.5763 138.212 18.7238C138.095 17.3304 138.835 15.4792 142.13 15.4792C145.107 15.4792 146.474 16.8346 146.808 17.0061C146.971 17.1152 147.167 17.1778 147.378 17.1778C147.941 17.1778 148.397 16.7283 148.397 16.1739C148.397 15.9219 148.302 15.6917 148.145 15.5146C148.079 15.4397 148.004 15.3757 147.919 15.3225C147.152 14.7287 145.186 13.624 141.972 13.624C138.368 13.624 136.8 15.6317 136.174 17.4856C135.547 19.3394 136.33 21.5026 138.211 22.5841C140.091 23.6656 144.166 23.9748 145.575 24.9011C146.985 25.8273 147.77 27.3733 146.359 29.2258C144.949 31.0797 140.362 31.1396 137.249 28.4058C137.068 28.2437 136.829 28.1442 136.565 28.1442C136.003 28.1442 135.547 28.5937 135.547 29.1482C135.547 29.4355 135.67 29.693 135.865 29.8769C135.879 29.8905 135.895 29.9055 135.915 29.9218C135.915 29.9232 135.917 29.9246 135.919 29.9246C136.513 30.4422 139.121 32.3165 142.755 32.3165C146.517 32.3165 148.33 30.6465 149.023 28.4548C149.808 25.9839 148.537 23.1357 144.323 22.2762Z" fill="url(#paint11_linear_186_14067)"/>
<path d="M155.45 6.39918C157.017 8.46963 161.561 15.0024 163.756 22.0119C165.95 29.0214 167.047 33.0043 167.517 40.9699C167.83 39.695 170.495 29.1807 173.473 22.1713C176.45 15.1618 180.837 4.32875 188.204 0.186523C188.204 0.186523 185.069 0.983371 179.897 6.39918C174.725 11.815 171.436 17.0728 168.614 23.1261C167.203 19.9401 162.658 11.3369 155.45 6.39918Z" fill="#EC6E0A"/>
<path d="M155.45 6.05593C157.017 8.06369 161.561 14.3976 163.756 21.1946C165.95 27.9917 167.047 31.8532 167.517 39.5779C167.83 38.3425 170.495 28.1469 173.473 21.3499C176.45 14.5529 180.837 4.04816 188.204 0.03125C188.204 0.03125 185.069 0.803576 179.897 6.05593C174.725 11.3083 171.436 16.4068 168.614 22.2761C167.203 19.1869 162.658 10.8451 155.45 6.05593Z" fill="url(#paint12_linear_186_14067)"/>
<path d="M168.849 14.5514C170.71 14.5514 172.218 13.0646 172.218 11.2306C172.218 9.39647 170.71 7.90967 168.849 7.90967C166.988 7.90967 165.48 9.39647 165.48 11.2306C165.48 13.0646 166.988 14.5514 168.849 14.5514Z" fill="url(#paint13_linear_186_14067)"/>
<path opacity="0.89" d="M171.748 10.9292C171.748 12.463 165.95 12.463 165.95 10.9292C165.95 9.39549 167.248 8.15186 168.85 8.15186C170.451 8.15186 171.748 9.39549 171.748 10.9292Z" fill="url(#paint14_linear_186_14067)"/>
<path d="M11.0194 17.7441L11.6467 18.3625L8.87634 21.0923L8.24902 20.4752L11.0194 17.7441Z" fill="url(#paint15_linear_186_14067)"/>
<path d="M26.2196 17.8979L26.8456 18.5164L24.0765 21.2473L23.4492 20.6289L26.2196 17.8979Z" fill="url(#paint16_linear_186_14067)"/>
<path d="M15.9277 18.3625L16.5551 17.7441L19.3255 20.4752L18.6982 21.0923L15.9277 18.3625Z" fill="url(#paint17_linear_186_14067)"/>
<path d="M32.6084 29.615C32.6043 29.6204 32.5988 29.6259 32.5946 29.6313C32.31 29.9569 32.0115 30.2728 31.7034 30.578C31.6965 30.5848 31.6881 30.593 31.6813 30.5998C31.3745 30.9022 31.0554 31.1951 30.7251 31.477C30.7155 31.4851 30.7044 31.4947 30.6947 31.5029C30.3672 31.7821 30.0287 32.0504 29.6805 32.3079C29.6666 32.3174 29.6529 32.3283 29.639 32.3379C29.4649 32.4659 29.2881 32.5912 29.1098 32.7138C29.1043 32.7179 29.0987 32.7219 29.0918 32.726C28.9206 32.8432 28.7464 32.9576 28.5709 33.0693C28.5543 33.0802 28.5364 33.0911 28.5198 33.102C28.3388 33.2164 28.1564 33.3268 27.9713 33.4357C27.956 33.4439 27.9409 33.4534 27.9256 33.4616C27.7529 33.5625 27.5775 33.6605 27.4006 33.7559C27.3798 33.7667 27.3605 33.7776 27.3398 33.7885C27.1532 33.888 26.9653 33.986 26.7746 34.08C26.7512 34.0923 26.7262 34.1032 26.7028 34.1154C26.5273 34.2013 26.3518 34.2844 26.1736 34.3661C26.1501 34.377 26.1279 34.3865 26.1058 34.3974C25.9138 34.4832 25.7204 34.5663 25.5256 34.6467C25.4938 34.6602 25.462 34.6725 25.4302 34.6848C25.2519 34.757 25.0736 34.8265 24.8927 34.8932C24.8678 34.9028 24.8443 34.9123 24.8194 34.9204C24.6232 34.9927 24.4242 35.0621 24.2253 35.1275C24.1865 35.1397 24.1479 35.152 24.1092 35.1657C23.9281 35.2242 23.7458 35.2814 23.562 35.3359C23.5371 35.3427 23.5137 35.3509 23.4888 35.3577C23.2871 35.4163 23.0839 35.4708 22.8794 35.5225C22.8352 35.5334 22.7924 35.5443 22.7482 35.5552C22.5602 35.6015 22.3723 35.6464 22.183 35.6873C22.1609 35.6928 22.1388 35.6983 22.1153 35.7023C21.9094 35.7473 21.7008 35.7867 21.4921 35.8249C21.4438 35.8331 21.3954 35.8426 21.3471 35.8508C21.1522 35.8848 20.956 35.9162 20.7598 35.9448C20.7418 35.9475 20.7225 35.9503 20.7045 35.953C20.4931 35.9829 20.2803 36.0088 20.0675 36.032C20.0164 36.0374 19.9639 36.0428 19.9128 36.0483C19.7069 36.0701 19.501 36.0878 19.2924 36.1028C19.2813 36.1041 19.2703 36.1041 19.2592 36.1055C19.0423 36.1205 18.8253 36.1314 18.607 36.1409C18.5531 36.1437 18.4992 36.145 18.4454 36.1464C18.2256 36.1531 18.0045 36.1586 17.7835 36.1586C17.561 36.1586 17.3413 36.1531 17.1216 36.1464C17.0677 36.145 17.0138 36.1423 16.96 36.1409C16.7416 36.1327 16.5233 36.1219 16.3078 36.1055C16.2967 36.1041 16.2856 36.1041 16.2746 36.1028C16.0673 36.0878 15.86 36.0687 15.6541 36.0483C15.603 36.0428 15.5505 36.0374 15.4994 36.032C15.2852 36.0088 15.0725 35.9829 14.8624 35.953C14.8431 35.9503 14.8251 35.9475 14.8071 35.9448C14.6095 35.9162 14.4147 35.8848 14.2185 35.8508C14.1702 35.8426 14.1218 35.8345 14.0748 35.8249C13.8662 35.7867 13.6575 35.7459 13.4517 35.7023C13.4295 35.6969 13.406 35.6914 13.3839 35.6873C13.1947 35.6464 13.0067 35.6015 12.8188 35.5552C12.7745 35.5443 12.7304 35.5334 12.6862 35.5225C12.4817 35.4708 12.2785 35.4149 12.0768 35.3564C12.0519 35.3495 12.0284 35.3413 12.0035 35.3346C11.8198 35.28 11.636 35.2242 11.455 35.1643C11.4163 35.152 11.3776 35.1397 11.3403 35.1261C11.14 35.0594 10.9424 34.9913 10.7462 34.9191C10.7212 34.9096 10.6978 34.9014 10.6729 34.8918C10.4919 34.8251 10.3137 34.7556 10.1354 34.6835C10.1036 34.6712 10.0718 34.6576 10.04 34.6453C9.84522 34.5649 9.65179 34.4819 9.45974 34.396C9.43619 34.3851 9.4141 34.3756 9.39201 34.3647C9.21374 34.2844 9.03686 34.1999 8.86283 34.1154C8.83927 34.1032 8.81441 34.0923 8.79093 34.08C8.60027 33.986 8.41231 33.8893 8.2258 33.7885C8.2051 33.7776 8.1857 33.7667 8.165 33.7559C7.98811 33.6605 7.81262 33.5625 7.63993 33.4616C7.62472 33.4534 7.60953 33.4439 7.59433 33.4357C7.40917 33.3268 7.22678 33.2164 7.04576 33.102C7.02918 33.0911 7.0126 33.0802 6.99464 33.0693C6.81777 32.9576 6.64367 32.8432 6.47233 32.726C6.4668 32.7219 6.46128 32.7192 6.45575 32.7152C6.27612 32.5926 6.10064 32.4672 5.92654 32.3392C5.91271 32.3297 5.8989 32.3188 5.88647 32.3092C5.53826 32.0518 5.19972 31.7835 4.87225 31.5043C4.86119 31.4947 4.85152 31.4865 4.84046 31.477C4.51022 31.1951 4.19241 30.9022 3.88428 30.5998C3.87738 30.593 3.87046 30.5861 3.86217 30.578C3.68946 30.4078 3.52226 30.2334 3.35645 30.0563C6.58978 34.4995 11.8723 37.3968 17.8443 37.3968C24.1036 37.3968 29.6058 34.2148 32.7853 29.4038C32.7273 29.4747 32.6692 29.5468 32.6084 29.615Z" fill="url(#paint18_linear_186_14067)"/>
<path opacity="0.25" d="M32.4201 15.4029V13.3447C32.4201 12.8476 32.0111 12.4443 31.5067 12.4443H26.7659C26.2616 12.4443 25.8525 12.8476 25.8525 13.3447V17.4256C27.1624 17.2486 29.318 16.844 32.4201 15.4029Z" fill="url(#paint19_linear_186_14067)"/>
<path opacity="0.25" d="M24.7414 23.1275V21.0693C24.7414 20.5722 24.3323 20.1689 23.828 20.1689H19.0872C18.5829 20.1689 18.1738 20.5722 18.1738 21.0693V25.1503C19.4837 24.9718 21.6393 24.5673 24.7414 23.1275Z" fill="url(#paint20_linear_186_14067)"/>
<path opacity="0.25" d="M17.0636 15.4029V13.3447C17.0636 12.8476 16.6546 12.4443 16.1503 12.4443H11.4094C10.9051 12.4443 10.4961 12.8476 10.4961 13.3447V17.4256C11.806 17.2486 13.9616 16.844 17.0636 15.4029Z" fill="url(#paint21_linear_186_14067)"/>
<path opacity="0.25" d="M9.38492 23.1275V21.0693C9.38492 20.5722 8.97589 20.1689 8.47157 20.1689H3.73073C3.22639 20.1689 2.81738 20.5722 2.81738 21.0693V25.1503C4.1273 24.9718 6.28147 24.5673 9.38492 23.1275Z" fill="url(#paint22_linear_186_14067)"/>
</g>
<defs>
<linearGradient id="paint0_linear_186_14067" x1="2.81756" y1="19.7556" x2="32.4205" y2="19.7556" gradientUnits="userSpaceOnUse">
<stop stop-color="#CC9401"/>
<stop offset="0.1904" stop-color="#CD9502"/>
<stop offset="0.2046" stop-color="#CA9603"/>
<stop offset="0.2162" stop-color="#C09807"/>
<stop offset="0.2269" stop-color="#AF9C0F"/>
<stop offset="0.2371" stop-color="#96A118"/>
<stop offset="0.2468" stop-color="#77A825"/>
<stop offset="0.2562" stop-color="#52B035"/>
<stop offset="0.2611" stop-color="#3BB53E"/>
<stop offset="0.4793" stop-color="#3BB93C"/>
<stop offset="0.4804" stop-color="#3FB43B"/>
<stop offset="0.5023" stop-color="#88622A"/>
<stop offset="0.5178" stop-color="#B62E1F"/>
<stop offset="0.5254" stop-color="#C81A1B"/>
<stop offset="0.7275" stop-color="#C81A1B"/>
<stop offset="0.7381" stop-color="#C9261A" stop-opacity="0.9975"/>
<stop offset="0.757" stop-color="#CB4417" stop-opacity="0.9931"/>
<stop offset="0.77" stop-color="#CD5D15" stop-opacity="0.99"/>
<stop offset="1" stop-color="#CC5D15"/>
</linearGradient>
<linearGradient id="paint1_linear_186_14067" x1="11.7588" y1="35.5107" x2="25.3025" y2="2.99798" gradientUnits="userSpaceOnUse">
<stop stop-color="#277DC6"/>
<stop offset="0.4761" stop-color="#3298D2"/>
<stop offset="1" stop-color="#3DB2DD"/>
</linearGradient>
<linearGradient id="paint2_linear_186_14067" x1="12.8481" y1="35.4358" x2="20.4996" y2="12.683" gradientUnits="userSpaceOnUse">
<stop stop-color="#184FB4"/>
<stop offset="0.2136" stop-color="#1B58B7"/>
<stop offset="0.5575" stop-color="#226FC1"/>
<stop offset="0.9867" stop-color="#2F96D0"/>
<stop offset="1" stop-color="#2F97D1"/>
</linearGradient>
<linearGradient id="paint3_linear_186_14067" x1="2.81756" y1="19.4463" x2="32.4205" y2="19.4463" gradientUnits="userSpaceOnUse">
<stop stop-color="#FEBD01"/>
<stop offset="0.1645" stop-color="#FEBD01"/>
<stop offset="0.1904" stop-color="#FEBD01"/>
<stop offset="0.2034" stop-color="#FBBE02"/>
<stop offset="0.214" stop-color="#F1C007"/>
<stop offset="0.2238" stop-color="#E0C40E"/>
<stop offset="0.2331" stop-color="#C7C917"/>
<stop offset="0.2421" stop-color="#A8D024"/>
<stop offset="0.2508" stop-color="#82D934"/>
<stop offset="0.2591" stop-color="#56E246"/>
<stop offset="0.2611" stop-color="#4AE54B"/>
<stop offset="0.4793" stop-color="#4AE54B"/>
<stop offset="0.4879" stop-color="#6FBB42"/>
<stop offset="0.5062" stop-color="#B96931"/>
<stop offset="0.5191" stop-color="#E73526"/>
<stop offset="0.5254" stop-color="#F92122"/>
<stop offset="0.7275" stop-color="#F92122"/>
<stop offset="0.7355" stop-color="#FA2D1F"/>
<stop offset="0.7496" stop-color="#FB4B16"/>
<stop offset="0.7683" stop-color="#FE7D08"/>
<stop offset="0.7779" stop-color="#FF9900"/>
<stop offset="1" stop-color="#FE9900"/>
</linearGradient>
<linearGradient id="paint4_linear_186_14067" x1="51.0828" y1="13.471" x2="51.0828" y2="32.4719" gradientUnits="userSpaceOnUse">
<stop stop-color="#2F98D2"/>
<stop offset="1" stop-color="#1B52AC"/>
</linearGradient>
<linearGradient id="paint5_linear_186_14067" x1="72.0037" y1="13.9342" x2="72.0037" y2="32.1628" gradientUnits="userSpaceOnUse">
<stop stop-color="#2F98D2"/>
<stop offset="1" stop-color="#1B52AC"/>
</linearGradient>
<linearGradient id="paint6_linear_186_14067" x1="90.1033" y1="13.9342" x2="90.1033" y2="32.1628" gradientUnits="userSpaceOnUse">
<stop stop-color="#2F98D2"/>
<stop offset="1" stop-color="#1B52AC"/>
</linearGradient>
<linearGradient id="paint7_linear_186_14067" x1="106.515" y1="13.6253" x2="106.515" y2="32.2429" gradientUnits="userSpaceOnUse">
<stop stop-color="#2F98D2"/>
<stop offset="1" stop-color="#1B52AC"/>
</linearGradient>
<linearGradient id="paint8_linear_186_14067" x1="187.261" y1="13.7799" x2="187.261" y2="32.163" gradientUnits="userSpaceOnUse">
<stop stop-color="#2F98D2"/>
<stop offset="1" stop-color="#1B52AC"/>
</linearGradient>
<linearGradient id="paint9_linear_186_14067" x1="125.315" y1="13.6257" x2="125.315" y2="32.3177" gradientUnits="userSpaceOnUse">
<stop stop-color="#2F98D2"/>
<stop offset="1" stop-color="#1B52AC"/>
</linearGradient>
<linearGradient id="paint10_linear_186_14067" x1="155.215" y1="13.7798" x2="155.215" y2="32.1629" gradientUnits="userSpaceOnUse">
<stop stop-color="#2F98D2"/>
<stop offset="1" stop-color="#1B52AC"/>
</linearGradient>
<linearGradient id="paint11_linear_186_14067" x1="142.396" y1="13.6257" x2="142.396" y2="32.3177" gradientUnits="userSpaceOnUse">
<stop stop-color="#2F98D2"/>
<stop offset="1" stop-color="#1B52AC"/>
</linearGradient>
<linearGradient id="paint12_linear_186_14067" x1="171.826" y1="0.0313862" x2="171.826" y2="39.5781" gradientUnits="userSpaceOnUse">
<stop stop-color="#FDE500"/>
<stop offset="0.2265" stop-color="#FDD300"/>
<stop offset="0.6792" stop-color="#FEA400"/>
<stop offset="1" stop-color="#FF7F00"/>
</linearGradient>
<linearGradient id="paint13_linear_186_14067" x1="168.849" y1="7.90972" x2="168.849" y2="14.5523" gradientUnits="userSpaceOnUse">
<stop stop-color="#FD4142"/>
<stop offset="0.5053" stop-color="#F82121"/>
<stop offset="1" stop-color="#F30505"/>
</linearGradient>
<linearGradient id="paint14_linear_186_14067" x1="168.849" y1="8.15178" x2="168.849" y2="12.0804" gradientUnits="userSpaceOnUse">
<stop stop-color="white"/>
<stop offset="1" stop-color="white" stop-opacity="0"/>
</linearGradient>
<linearGradient id="paint15_linear_186_14067" x1="8.56252" y1="20.7838" x2="11.2931" y2="18.0139" gradientUnits="userSpaceOnUse">
<stop offset="0.2234" stop-color="#FEBD01"/>
<stop offset="0.6441" stop-color="#84DA3A"/>
<stop offset="0.8346" stop-color="#52E652"/>
</linearGradient>
<linearGradient id="paint16_linear_186_14067" x1="23.7625" y1="20.9381" x2="26.493" y2="18.1682" gradientUnits="userSpaceOnUse">
<stop offset="0.269" stop-color="#F92122"/>
<stop offset="0.5991" stop-color="#FC7B1C"/>
<stop offset="0.7665" stop-color="#FEA41A"/>
</linearGradient>
<linearGradient id="paint17_linear_186_14067" x1="16.2415" y1="18.0529" x2="18.972" y2="20.8229" gradientUnits="userSpaceOnUse">
<stop offset="0.1697" stop-color="#4AE54B"/>
<stop offset="0.2702" stop-color="#60CC46"/>
<stop offset="0.4845" stop-color="#9A8B38"/>
<stop offset="0.7934" stop-color="#F62523"/>
<stop offset="0.8037" stop-color="#F92122"/>
</linearGradient>
<linearGradient id="paint18_linear_186_14067" x1="17.9366" y1="37.4019" x2="18.0785" y2="29.1516" gradientUnits="userSpaceOnUse">
<stop stop-color="#1544A0"/>
<stop offset="1" stop-color="#1745A3"/>
</linearGradient>
<linearGradient id="paint19_linear_186_14067" x1="29.1367" y1="17.4269" x2="29.1367" y2="12.446" gradientUnits="userSpaceOnUse">
<stop stop-color="white"/>
<stop offset="1" stop-color="white" stop-opacity="0"/>
</linearGradient>
<linearGradient id="paint20_linear_186_14067" x1="21.4578" y1="25.1509" x2="21.4578" y2="20.1699" gradientUnits="userSpaceOnUse">
<stop stop-color="white"/>
<stop offset="1" stop-color="white" stop-opacity="0"/>
</linearGradient>
<linearGradient id="paint21_linear_186_14067" x1="13.7799" y1="17.4269" x2="13.7799" y2="12.446" gradientUnits="userSpaceOnUse">
<stop stop-color="white"/>
<stop offset="1" stop-color="white" stop-opacity="0"/>
</linearGradient>
<linearGradient id="paint22_linear_186_14067" x1="6.10107" y1="25.1509" x2="6.10107" y2="20.1699" gradientUnits="userSpaceOnUse">
<stop stop-color="white"/>
<stop offset="1" stop-color="white" stop-opacity="0"/>
</linearGradient>
</defs>
</svg>
