<?xml version="1.0" encoding="utf-8"?>
<!-- Generator: Adobe Illustrator 24.2.3, SVG Export Plug-In . SVG Version: 6.00 Build 0)  -->
<svg version="1.1" id="Layer_1" xmlns="http://www.w3.org/2000/svg" xmlns:xlink="http://www.w3.org/1999/xlink" x="0px" y="0px"
	 viewBox="0 0 701.3 156.1" style="enable-background:new 0 0 701.3 156.1;" xml:space="preserve">
<style type="text/css">
	.st0{fill:#EE2424;}
	.st1{fill:#FFf;}
	.st2{fill:#fff;}
</style>
<g>
	<path d="M674.2,18.7V7.3H670V5.8h10.2v1.5h-4.3v11.4H674.2z"/>
	<path d="M681.9,18.7V5.8h2.6l3,9.1c0.3,0.8,0.5,1.5,0.6,1.9c0.1-0.5,0.4-1.2,0.7-2.1l3.1-9h2.3v12.9h-1.6V7.9l-3.7,10.8h-1.5
		l-3.7-11v11H681.9z"/>
</g>
<path class="st0" d="M6.9,78.8c0-40,32.4-72.4,72.4-72.4s72.4,32.4,72.4,72.4s-32.4,72.4-72.4,72.4C39.3,151.3,6.9,118.8,6.9,78.8"
	/>
<polyline class="st1" points="107.5,12 51.1,98.8 79.4,87.2 48.5,144.6 51.1,146 110.3,58.9 79.4,70.2 110.4,13.4 "/>
<path class="st2" d="M565.5,109.2L607,56.8L570.2,7.9h17.3L607.2,34c4.1,5.4,6.9,9.5,8.5,12.2c2.5-3.7,5.4-7.6,8.8-11.5l21.2-26.8h15.8L624,56.2
	l40,53h-17.7l-26.9-35.8c-1.5-2.1-3.1-4.1-4.6-6.1c-2.1,3-3.7,5.2-4.8,6.6l-27.4,35.3L565.5,109.2 M522.2,109.2h14.4V7.9h-14.4
	V109.2z M420.1,109.2V7.9h14.4v89.3h53.3v11.9L420.1,109.2 M283.4,59.9c0-16.8,4.8-29.9,14.5-39.4s22.2-14.2,37.5-14.2
	c10,0,19,2.2,27.1,6.7c8,4.5,14.2,10.7,18.4,18.7c4.2,8,6.3,17,6.3,27.1c0,10.3-2.2,19.4-6.7,27.5c-4.4,8.1-10.7,14.2-18.9,18.4
	c-8.1,4.2-16.9,6.2-26.3,6.2c-10.2,0-19.3-2.3-27.4-6.9c-8-4.6-14.1-10.9-18.3-18.8C285.5,77.2,283.4,68.8,283.4,59.9 M298.1,60.2
	c0,12.2,3.5,21.8,10.6,28.8c7,7,15.9,10.5,26.5,10.5c10.8,0,19.8-3.5,26.7-10.6c7-7.1,10.5-17.1,10.5-30.1c0-8.2-1.5-15.4-4.5-21.5
	s-7.4-10.9-13.1-14.3c-5.8-3.4-12.2-5.1-19.4-5.1c-10.2,0-19,3.2-26.3,9.7C301.8,34.2,298.1,45,298.1,60.2 M167.6,76.5l13.6-1.1
	c0.6,5.1,2.1,9.3,4.4,12.6c2.3,3.3,5.9,5.9,10.8,8c4.9,2,10.4,3,16.5,3c5.4,0,10.2-0.8,14.3-2.3s7.2-3.6,9.3-6.3c2-2.7,3-5.6,3-8.7
	s-1-5.9-2.9-8.2c-1.9-2.3-5.1-4.3-9.6-5.9c-2.9-1.1-9.3-2.7-19.1-4.9c-9.9-2.2-16.8-4.3-20.8-6.3c-5.2-2.5-9-5.7-11.5-9.4
	c-2.5-3.8-3.8-8-3.8-12.6c0-5.1,1.5-9.9,4.6-14.3c3.1-4.5,7.6-7.8,13.5-10.1c5.9-2.3,12.5-3.5,19.7-3.5c8,0,15,1.2,21.1,3.6
	s10.8,6,14,10.7c3.3,4.7,5,10,5.3,15.9l-13.6,0.8c-0.7-6.3-3.2-11.1-7.4-14.3c-4.2-3.2-10.5-4.8-18.7-4.8c-8.6,0-14.8,1.5-18.8,4.4
	c-3.9,3-5.9,6.5-5.9,10.7c0,3.6,1.4,6.6,4.2,9c2.7,2.4,9.9,4.7,21.4,7.2c11.5,2.5,19.5,4.6,23.8,6.4c6.3,2.7,10.9,6.1,13.9,10.3
	c3,4.2,4.5,8.9,4.5,14.4c0,5.4-1.6,10.4-4.9,15.2c-3.3,4.7-8,8.4-14.1,11.1c-6.1,2.6-13.1,4-20.8,4c-9.7,0-17.9-1.3-24.5-4
	s-11.8-6.7-15.5-12.1C169.8,89.4,167.8,83.3,167.6,76.5"/>
<g>
	<path class="st2" d="M171.9,144.2v-20h14.5v2.4h-11.8v6.1h11.1v2.4h-11.1v6.8h12.3v2.4L171.9,144.2L171.9,144.2z"/>
	<path class="st2" d="M190.3,144.2v-14.5h2.2v2c0.5-0.7,1.1-1.3,1.8-1.7c0.8-0.4,1.6-0.6,2.6-0.6c1.1,0,2,0.2,2.6,0.7
		c0.7,0.4,1.2,1.1,1.5,1.9c1.1-1.7,2.6-2.5,4.5-2.5c1.4,0,2.5,0.4,3.3,1.2s1.2,2,1.2,3.7v10h-2.4v-9.1c0-1-0.1-1.7-0.2-2.1
		c-0.2-0.4-0.4-0.8-0.9-1c-0.4-0.3-0.9-0.4-1.5-0.4c-1,0-1.9,0.3-2.5,1c-0.7,0.7-1,1.8-1,3.3v8.4H199v-9.4c0-1.1-0.2-1.9-0.6-2.5
		c-0.4-0.5-1.1-0.8-2-0.8c-0.7,0-1.3,0.2-1.9,0.5s-1,0.9-1.3,1.6c-0.3,0.7-0.4,1.7-0.4,3v7.5h-2.5V144.2z"/>
	<path class="st2" d="M213.8,149.8v-20.1h2.2v1.9c0.5-0.7,1.1-1.3,1.8-1.7s1.5-0.6,2.4-0.6c1.2,0,2.3,0.3,3.3,1
		c0.9,0.6,1.7,1.5,2.1,2.7c0.5,1.2,0.7,2.4,0.7,3.8c0,1.5-0.3,2.8-0.8,4s-1.3,2.1-2.3,2.7c-1,0.6-2.1,1-3.2,1
		c-0.8,0-1.6-0.2-2.2-0.5c-0.7-0.3-1.2-0.8-1.6-1.3v7.1L213.8,149.8L213.8,149.8z M216.1,137c0,1.9,0.4,3.2,1.1,4.1
		c0.8,0.9,1.7,1.3,2.7,1.3c1.1,0,2-0.5,2.8-1.4s1.2-2.4,1.2-4.3c0-1.9-0.4-3.2-1.1-4.2c-0.8-0.9-1.7-1.4-2.7-1.4s-2,0.5-2.8,1.5
		S216.1,135.1,216.1,137z"/>
	<path class="st2" d="M228.7,136.9c0-2.7,0.7-4.7,2.2-6c1.2-1.1,2.8-1.6,4.6-1.6c2,0,3.6,0.7,4.9,2c1.3,1.3,1.9,3.1,1.9,5.4
		c0,1.9-0.3,3.3-0.8,4.4s-1.4,1.9-2.4,2.5c-1.1,0.6-2.2,0.9-3.5,0.9c-2,0-3.7-0.7-4.9-2C229.3,141.3,228.7,139.4,228.7,136.9z
		 M231.2,136.9c0,1.9,0.4,3.3,1.2,4.2s1.8,1.4,3.1,1.4c1.2,0,2.2-0.5,3-1.4s1.2-2.3,1.2-4.3c0-1.8-0.4-3.2-1.2-4.1
		c-0.8-0.9-1.8-1.4-3-1.4s-2.3,0.5-3.1,1.4C231.6,133.7,231.2,135.1,231.2,136.9z"/>
	<path class="st2" d="M248,144.2l-4.4-14.5h2.5l2.3,8.4l0.9,3.1c0-0.2,0.3-1.2,0.8-3l2.3-8.5h2.5l2.2,8.4l0.7,2.8l0.8-2.8l2.5-8.4
		h2.4l-4.5,14.5h-2.6l-2.3-8.7l-0.6-2.5l-2.9,11.2H248z"/>
	<path class="st2" d="M275.6,139.5l2.5,0.3c-0.4,1.5-1.1,2.6-2.2,3.5c-1.1,0.8-2.5,1.2-4.2,1.2c-2.1,0-3.8-0.7-5.1-2
		s-1.9-3.1-1.9-5.5s0.6-4.3,1.9-5.7s2.9-2,4.9-2c1.9,0,3.5,0.7,4.8,2s1.8,3.2,1.8,5.6c0,0.1,0,0.4,0,0.7h-10.8
		c0.1,1.6,0.5,2.8,1.4,3.7c0.8,0.8,1.8,1.3,3,1.3c0.9,0,1.7-0.2,2.3-0.7C274.8,141.3,275.3,140.6,275.6,139.5z M267.6,135.5h8.1
		c-0.1-1.2-0.4-2.1-0.9-2.7c-0.8-0.9-1.8-1.4-3-1.4c-1.1,0-2.1,0.4-2.9,1.1C268.1,133.3,267.7,134.3,267.6,135.5z"/>
	<path class="st2" d="M281.4,144.2v-14.5h2.2v2.2c0.6-1,1.1-1.7,1.6-2s1-0.5,1.6-0.5c0.8,0,1.7,0.3,2.5,0.8l-0.8,2.3
		c-0.6-0.4-1.2-0.5-1.8-0.5c-0.5,0-1,0.2-1.4,0.5s-0.7,0.8-0.9,1.3c-0.3,0.9-0.4,1.8-0.4,2.9v7.6h-2.6V144.2z"/>
	<path class="st2" d="M291,127v-2.8h2.5v2.8H291z M291,144.2v-14.5h2.5v14.5H291z"/>
	<path class="st2" d="M297.3,144.2v-14.5h2.2v2.1c1.1-1.6,2.6-2.4,4.6-2.4c0.9,0,1.7,0.2,2.4,0.5c0.7,0.3,1.3,0.7,1.6,1.2
		c0.4,0.5,0.6,1.1,0.8,1.8c0.1,0.5,0.1,1.3,0.1,2.4v8.9h-2.5v-8.8c0-1-0.1-1.8-0.3-2.2s-0.5-0.9-1-1.2s-1.1-0.4-1.7-0.4
		c-1,0-2,0.3-2.7,1c-0.8,0.7-1.1,1.9-1.1,3.8v7.9h-2.4V144.2z"/>
	<path class="st2" d="M312.6,145.4l2.4,0.4c0.1,0.7,0.4,1.3,0.8,1.6c0.6,0.5,1.4,0.7,2.5,0.7s2-0.2,2.6-0.7s1-1.1,1.3-1.9
		c0.1-0.5,0.2-1.6,0.2-3.2c-1.1,1.3-2.4,1.9-4,1.9c-2,0-3.5-0.7-4.6-2.2s-1.6-3.2-1.6-5.2c0-1.4,0.3-2.7,0.8-3.8
		c0.5-1.2,1.2-2.1,2.2-2.7c1-0.6,2.1-1,3.4-1c1.7,0,3.1,0.7,4.2,2.1v-1.8h2.3v12.6c0,2.3-0.2,3.9-0.7,4.8c-0.5,0.9-1.2,1.7-2.2,2.2
		s-2.2,0.8-3.7,0.8c-1.7,0-3.1-0.4-4.2-1.2S312.6,147,312.6,145.4z M314.7,136.7c0,1.9,0.4,3.3,1.1,4.2c0.8,0.9,1.7,1.3,2.8,1.3
		c1.1,0,2.1-0.4,2.8-1.3s1.1-2.2,1.1-4.1c0-1.8-0.4-3.1-1.2-4c-0.8-0.9-1.7-1.4-2.9-1.4c-1.1,0-2,0.4-2.8,1.3
		S314.7,134.9,314.7,136.7z"/>
	<path class="st2" d="M342.1,142l0.4,2.2c-0.7,0.1-1.3,0.2-1.9,0.2c-0.9,0-1.6-0.1-2.1-0.4s-0.8-0.7-1-1.1c-0.2-0.5-0.3-1.4-0.3-2.9
		v-8.4h-1.8v-1.9h1.8v-3.6l2.4-1.5v5.1h2.5v1.9h-2.5v8.5c0,0.7,0,1.2,0.1,1.4s0.2,0.4,0.4,0.5c0.2,0.1,0.5,0.2,0.8,0.2
		C341.3,142.1,341.7,142.1,342.1,142z"/>
	<path class="st2" d="M344.7,144.2v-20h2.5v7.2c1.1-1.3,2.6-2,4.3-2c1.1,0,2,0.2,2.8,0.6s1.4,1,1.7,1.8s0.5,1.8,0.5,3.3v9.2H354
		v-9.2c0-1.2-0.3-2.1-0.8-2.7c-0.5-0.6-1.3-0.8-2.3-0.8c-0.7,0-1.4,0.2-2.1,0.6s-1.1,0.9-1.4,1.5s-0.4,1.5-0.4,2.7v7.9h-2.3V144.2z"
		/>
	<path class="st2" d="M370.4,139.5l2.5,0.3c-0.4,1.5-1.1,2.6-2.2,3.5s-2.5,1.2-4.2,1.2c-2.1,0-3.8-0.7-5.1-2s-1.9-3.1-1.9-5.5
		s0.6-4.3,1.9-5.7s2.9-2,4.9-2c1.9,0,3.5,0.7,4.8,2s1.8,3.2,1.8,5.6c0,0.1,0,0.4,0,0.7h-10.8c0.1,1.6,0.5,2.8,1.4,3.7s1.8,1.3,3,1.3
		c0.9,0,1.7-0.2,2.3-0.7S370,140.6,370.4,139.5z M362.3,135.5h8.1c-0.1-1.2-0.4-2.1-0.9-2.7c-0.8-0.9-1.8-1.4-3-1.4
		c-1.1,0-2.1,0.4-2.9,1.1S362.4,134.3,362.3,135.5z"/>
	<path class="st2" d="M384.4,144.2v-20h6.9c1.6,0,2.7,0.1,3.6,0.3c1.1,0.3,2.1,0.7,2.9,1.4c1.1,0.9,1.8,2,2.4,3.4
		c0.6,1.4,0.8,3,0.8,4.8c0,1.5-0.2,2.9-0.5,4s-0.8,2.1-1.4,2.9s-1.2,1.4-1.8,1.8s-1.5,0.8-2.4,1s-2,0.3-3.2,0.3h-7.3V144.2z
		 M387.1,141.8h4.3c1.3,0,2.4-0.1,3.1-0.4s1.4-0.6,1.8-1c0.6-0.6,1.1-1.5,1.5-2.5s0.5-2.3,0.5-3.9c0-2.1-0.3-3.7-1-4.8
		s-1.5-1.9-2.5-2.3c-0.7-0.3-1.9-0.4-3.4-0.4h-4.2L387.1,141.8L387.1,141.8z"/>
	<path class="st2" d="M414,142.4c-0.9,0.8-1.8,1.3-2.6,1.6s-1.7,0.5-2.7,0.5c-1.6,0-2.8-0.4-3.7-1.2s-1.3-1.8-1.3-3
		c0-0.7,0.2-1.4,0.5-1.9s0.7-1.1,1.3-1.4s1.1-0.6,1.8-0.8c0.5-0.1,1.2-0.3,2.2-0.4c2-0.2,3.5-0.5,4.4-0.8c0-0.3,0-0.6,0-0.6
		c0-1-0.2-1.7-0.7-2.1c-0.6-0.6-1.6-0.8-2.8-0.8c-1.2,0-2,0.2-2.6,0.6s-1,1.1-1.2,2.2l-2.4-0.3c0.2-1,0.6-1.9,1.1-2.5
		s1.2-1.1,2.2-1.5s2-0.5,3.3-0.5c1.2,0,2.2,0.1,3,0.4s1.3,0.7,1.7,1.1s0.6,1,0.8,1.7c0.1,0.4,0.1,1.2,0.1,2.3v3.3
		c0,2.3,0.1,3.7,0.2,4.3s0.3,1.2,0.6,1.7h-2.6C414.2,143.7,414.1,143.1,414,142.4z M413.8,136.9c-0.9,0.4-2.2,0.7-4,0.9
		c-1,0.1-1.7,0.3-2.1,0.5s-0.7,0.4-1,0.8s-0.3,0.7-0.3,1.2c0,0.7,0.2,1.2,0.7,1.6s1.2,0.7,2.2,0.7c0.9,0,1.8-0.2,2.5-0.6
		s1.3-1,1.6-1.7c0.3-0.6,0.4-1.4,0.4-2.5L413.8,136.9L413.8,136.9z"/>
	<path class="st2" d="M425.6,142l0.4,2.2c-0.7,0.1-1.3,0.2-1.9,0.2c-0.9,0-1.6-0.1-2.1-0.4s-0.8-0.7-1-1.1s-0.3-1.4-0.3-2.9v-8.4
		h-1.8v-1.9h1.8v-3.6l2.4-1.5v5.1h2.5v1.9h-2.5v8.5c0,0.7,0,1.2,0.1,1.4s0.2,0.4,0.4,0.5s0.5,0.2,0.8,0.2
		C424.8,142.1,425.2,142.1,425.6,142z"/>
	<path class="st2" d="M437.7,142.4c-0.9,0.8-1.8,1.3-2.6,1.6s-1.7,0.5-2.7,0.5c-1.6,0-2.8-0.4-3.7-1.2s-1.3-1.8-1.3-3
		c0-0.7,0.2-1.4,0.5-1.9s0.7-1.1,1.3-1.4s1.1-0.6,1.8-0.8c0.5-0.1,1.2-0.3,2.2-0.4c2-0.2,3.5-0.5,4.4-0.8c0-0.3,0-0.6,0-0.6
		c0-1-0.2-1.7-0.7-2.1c-0.6-0.6-1.6-0.8-2.8-0.8c-1.2,0-2,0.2-2.6,0.6s-1,1.1-1.2,2.2l-2.4-0.3c0.2-1,0.6-1.9,1.1-2.5
		s1.2-1.1,2.2-1.5s2-0.5,3.3-0.5c1.2,0,2.2,0.1,3,0.4s1.3,0.7,1.7,1.1s0.6,1,0.8,1.7c0.1,0.4,0.1,1.2,0.1,2.3v3.3
		c0,2.3,0.1,3.7,0.2,4.3s0.3,1.2,0.6,1.7h-2.6C437.9,143.7,437.8,143.1,437.7,142.4z M437.5,136.9c-0.9,0.4-2.2,0.7-4,0.9
		c-1,0.1-1.7,0.3-2.1,0.5s-0.7,0.4-1,0.8s-0.3,0.7-0.3,1.2c0,0.7,0.2,1.2,0.7,1.6s1.2,0.7,2.2,0.7c0.9,0,1.8-0.2,2.5-0.6
		s1.3-1,1.6-1.7c0.3-0.6,0.4-1.4,0.4-2.5L437.5,136.9L437.5,136.9z"/>
	<path class="st2" d="M443,138.2v-2.5h7.6v2.5H443z"/>
	<path class="st2" d="M462.9,144.2v-1.8c-0.9,1.4-2.3,2.2-4.1,2.2c-1.2,0-2.2-0.3-3.2-1s-1.7-1.5-2.3-2.7s-0.8-2.5-0.8-3.9
		s0.2-2.8,0.7-3.9s1.2-2.1,2.2-2.7s2-0.9,3.2-0.9c0.9,0,1.7,0.2,2.3,0.6s1.2,0.8,1.7,1.4v-7.2h2.4v20h-2.1V144.2z M455.1,136.9
		c0,1.9,0.4,3.2,1.2,4.2s1.7,1.4,2.8,1.4c1.1,0,2-0.4,2.7-1.3s1.1-2.2,1.1-4c0-2-0.4-3.4-1.1-4.4s-1.7-1.4-2.8-1.4
		c-1.1,0-2,0.4-2.7,1.3S455.1,135,455.1,136.9z"/>
	<path class="st2" d="M469.2,144.2v-14.5h2.2v2.2c0.6-1,1.1-1.7,1.6-2s1-0.5,1.6-0.5c0.8,0,1.7,0.3,2.5,0.8l-0.8,2.3
		c-0.6-0.4-1.2-0.5-1.8-0.5c-0.5,0-1,0.2-1.4,0.5s-0.7,0.8-0.9,1.3c-0.3,0.9-0.4,1.8-0.4,2.9v7.6h-2.6V144.2z"/>
	<path class="st2" d="M478.7,127v-2.8h2.5v2.8H478.7z M478.7,144.2v-14.5h2.5v14.5H478.7z"/>
	<path class="st2" d="M489.1,144.2l-5.5-14.5h2.6l3.1,8.7c0.3,0.9,0.6,1.9,0.9,2.9c0.2-0.8,0.5-1.7,0.9-2.8l3.2-8.9h2.5l-5.5,14.5
		h-2.2V144.2z"/>
	<path class="st2" d="M509.2,139.5l2.5,0.3c-0.4,1.5-1.1,2.6-2.2,3.5s-2.5,1.2-4.2,1.2c-2.1,0-3.8-0.7-5.1-2s-1.9-3.1-1.9-5.5
		s0.6-4.3,1.9-5.7s2.9-2,4.9-2c1.9,0,3.5,0.7,4.8,2s1.8,3.2,1.8,5.6c0,0.1,0,0.4,0,0.7H501c0.1,1.6,0.5,2.8,1.4,3.7s1.8,1.3,3,1.3
		c0.9,0,1.7-0.2,2.3-0.7S508.8,140.6,509.2,139.5z M501.1,135.5h8.1c-0.1-1.2-0.4-2.1-0.9-2.7c-0.8-0.9-1.8-1.4-3-1.4
		c-1.1,0-2.1,0.4-2.9,1.1S501.2,134.3,501.1,135.5z"/>
	<path class="st2" d="M515,144.2v-14.5h2.2v2.1c1.1-1.6,2.6-2.4,4.6-2.4c0.9,0,1.7,0.2,2.4,0.5s1.3,0.7,1.6,1.2s0.6,1.1,0.8,1.8
		c0.1,0.5,0.1,1.3,0.1,2.4v8.9h-2.5v-8.8c0-1-0.1-1.8-0.3-2.2s-0.5-0.9-1-1.2s-1.1-0.4-1.7-0.4c-1,0-2,0.3-2.7,1s-1.1,1.9-1.1,3.8
		v7.9H515V144.2z"/>
	<path class="st2" d="M539,144.2v-20h14.5v2.4h-11.8v6.1h11.1v2.4h-11.1v6.8H554v2.4L539,144.2L539,144.2z"/>
	<path class="st2" d="M557.5,144.2v-14.5h2.2v2.1c1.1-1.6,2.6-2.4,4.6-2.4c0.9,0,1.7,0.2,2.4,0.5s1.3,0.7,1.6,1.2s0.6,1.1,0.8,1.8
		c0.1,0.5,0.1,1.3,0.1,2.4v8.9h-2.5v-8.8c0-1-0.1-1.8-0.3-2.2s-0.5-0.9-1-1.2s-1.1-0.4-1.7-0.4c-1,0-2,0.3-2.7,1s-1.1,1.9-1.1,3.8
		v7.9h-2.4V144.2z"/>
	<path class="st2" d="M578.6,142l0.4,2.2c-0.7,0.1-1.3,0.2-1.9,0.2c-0.9,0-1.6-0.1-2.1-0.4s-0.8-0.7-1-1.1s-0.3-1.4-0.3-2.9v-8.4
		h-1.8v-1.9h1.8v-3.6l2.4-1.5v5.1h2.5v1.9h-2.5v8.5c0,0.7,0,1.2,0.1,1.4s0.2,0.4,0.4,0.5s0.5,0.2,0.8,0.2
		C577.8,142.1,578.2,142.1,578.6,142z"/>
	<path class="st2" d="M591.1,139.5l2.5,0.3c-0.4,1.5-1.1,2.6-2.2,3.5s-2.5,1.2-4.2,1.2c-2.1,0-3.8-0.7-5.1-2s-1.9-3.1-1.9-5.5
		s0.6-4.3,1.9-5.7s2.9-2,4.9-2c1.9,0,3.5,0.7,4.8,2s1.8,3.2,1.8,5.6c0,0.1,0,0.4,0,0.7h-10.8c0.1,1.6,0.5,2.8,1.4,3.7s1.8,1.3,3,1.3
		c0.9,0,1.7-0.2,2.3-0.7S590.8,140.6,591.1,139.5z M583,135.5h8.1c-0.1-1.2-0.4-2.1-0.9-2.7c-0.8-0.9-1.8-1.4-3-1.4
		c-1.1,0-2.1,0.4-2.9,1.1S583.1,134.3,583,135.5z"/>
	<path class="st2" d="M596.9,144.2v-14.5h2.2v2.2c0.6-1,1.1-1.7,1.6-2s1-0.5,1.6-0.5c0.8,0,1.7,0.3,2.5,0.8l-0.8,2.3
		c-0.6-0.4-1.2-0.5-1.8-0.5c-0.5,0-1,0.2-1.4,0.5s-0.7,0.8-0.9,1.3c-0.3,0.9-0.4,1.8-0.4,2.9v7.6h-2.6V144.2z"/>
	<path class="st2" d="M606.4,149.8v-20.1h2.2v1.9c0.5-0.7,1.1-1.3,1.8-1.7s1.5-0.6,2.4-0.6c1.2,0,2.3,0.3,3.3,1s1.7,1.5,2.1,2.7
		s0.7,2.4,0.7,3.8c0,1.5-0.3,2.8-0.8,4s-1.3,2.1-2.3,2.7s-2.1,1-3.2,1c-0.8,0-1.6-0.2-2.2-0.5s-1.2-0.8-1.6-1.3v7.1L606.4,149.8
		L606.4,149.8z M608.7,137c0,1.9,0.4,3.2,1.1,4.1s1.7,1.3,2.7,1.3c1.1,0,2-0.5,2.8-1.4s1.2-2.4,1.2-4.3c0-1.9-0.4-3.2-1.1-4.2
		s-1.7-1.4-2.7-1.4s-2,0.5-2.8,1.5S608.7,135.1,608.7,137z"/>
	<path class="st2" d="M622.1,144.2v-14.5h2.2v2.2c0.6-1,1.1-1.7,1.6-2s1-0.5,1.6-0.5c0.8,0,1.7,0.3,2.5,0.8l-0.8,2.3
		c-0.6-0.4-1.2-0.5-1.8-0.5c-0.5,0-1,0.2-1.4,0.5s-0.7,0.8-0.9,1.3c-0.3,0.9-0.4,1.8-0.4,2.9v7.6h-2.6V144.2z"/>
	<path class="st2" d="M631.7,127v-2.8h2.5v2.8H631.7z M631.7,144.2v-14.5h2.5v14.5H631.7z"/>
	<path class="st2" d="M637.1,139.9l2.4-0.4c0.1,1,0.5,1.7,1.1,2.2s1.5,0.8,2.6,0.8s2-0.2,2.5-0.7s0.8-1,0.8-1.6s-0.2-1-0.7-1.3
		c-0.3-0.2-1.2-0.5-2.5-0.8c-1.8-0.5-3.1-0.8-3.8-1.2s-1.2-0.8-1.6-1.4s-0.5-1.2-0.5-1.9c0-0.6,0.1-1.2,0.4-1.8s0.7-1,1.2-1.4
		c0.4-0.3,0.9-0.5,1.6-0.7s1.4-0.3,2.1-0.3c1.1,0,2.1,0.2,3,0.5s1.5,0.8,1.9,1.3s0.7,1.3,0.8,2.2l-2.4,0.3c-0.1-0.7-0.4-1.3-1-1.8
		s-1.3-0.6-2.2-0.6c-1.1,0-1.9,0.2-2.4,0.6s-0.7,0.8-0.7,1.3c0,0.3,0.1,0.6,0.3,0.9c0.2,0.3,0.5,0.5,0.9,0.7c0.2,0.1,1,0.3,2.2,0.6
		c1.7,0.5,3,0.8,3.6,1.1s1.2,0.7,1.6,1.3s0.6,1.3,0.6,2.1s-0.2,1.6-0.7,2.3s-1.2,1.3-2.1,1.7s-1.9,0.6-3.1,0.6
		c-1.9,0-3.3-0.4-4.3-1.2S637.3,141.4,637.1,139.9z"/>
	<path class="st2" d="M662.2,139.5l2.5,0.3c-0.4,1.5-1.1,2.6-2.2,3.5s-2.5,1.2-4.2,1.2c-2.1,0-3.8-0.7-5.1-2s-1.9-3.1-1.9-5.5
		s0.6-4.3,1.9-5.7s2.9-2,4.9-2c1.9,0,3.5,0.7,4.8,2s1.8,3.2,1.8,5.6c0,0.1,0,0.4,0,0.7h-10.8c0.1,1.6,0.5,2.8,1.4,3.7s1.8,1.3,3,1.3
		c0.9,0,1.7-0.2,2.3-0.7S661.8,140.6,662.2,139.5z M654.1,135.5h8.1c-0.1-1.2-0.4-2.1-0.9-2.7c-0.8-0.9-1.8-1.4-3-1.4
		c-1.1,0-2.1,0.4-2.9,1.1S654.2,134.3,654.1,135.5z"/>
</g>
</svg>
