<svg id="Group_146614" data-name="Group 146614" xmlns="http://www.w3.org/2000/svg" width="130" height="24.126" viewBox="0 0 130 24.126">
  <g id="Group_438" data-name="Group 438">
    <path id="Path_553" data-name="Path 553" d="M145.752,178.523l-5.711,9.639a1.637,1.637,0,0,1-2.8,0l-2.912-4.915a3.15,3.15,0,0,1,2.8-4.724Z" transform="translate(-133.893 -178.523)" fill="#fff"/>
    <path id="Path_554" data-name="Path 554" d="M145.869,190.524l6.251,10.55a3.274,3.274,0,0,0,5.6,0l10.561-17.827a3.15,3.15,0,0,0-2.8-4.724H154.937l-6.472,10.924a2.042,2.042,0,0,1-2.786.756Z" transform="translate(-141.12 -178.523)" fill="#fff"/>
  </g>
  <g id="Group_439" data-name="Group 439" transform="translate(30.406 7.398)">
    <path id="Path_555" data-name="Path 555" d="M212.5,198.812h1.742a.726.726,0,0,1,.472.145.907.907,0,0,1,.27.371l4.55,11.358a8.061,8.061,0,0,1,.286.831q.129.45.252.933.1-.483.22-.933a6.518,6.518,0,0,1,.275-.831l4.527-11.358a.948.948,0,0,1,.27-.354.7.7,0,0,1,.471-.162h1.753l-6.561,16.1h-1.967Z" transform="translate(-212.503 -198.362)" fill="#fff"/>
    <path id="Path_556" data-name="Path 556" d="M260.042,222.069h-.887a1.054,1.054,0,0,1-.473-.09.5.5,0,0,1-.236-.382l-.224-1.056q-.45.4-.876.725a5.022,5.022,0,0,1-.9.538,4.663,4.663,0,0,1-1.006.332,5.757,5.757,0,0,1-1.185.113,4.053,4.053,0,0,1-1.242-.186,2.846,2.846,0,0,1-1.006-.559,2.647,2.647,0,0,1-.68-.942,3.3,3.3,0,0,1-.253-1.347,2.523,2.523,0,0,1,.371-1.3,3.268,3.268,0,0,1,1.2-1.111,7.788,7.788,0,0,1,2.163-.794,14.727,14.727,0,0,1,3.269-.31v-.893a3.093,3.093,0,0,0-.568-2.018,2.054,2.054,0,0,0-1.679-.684,3.533,3.533,0,0,0-1.23.186,4.624,4.624,0,0,0-.865.415q-.366.23-.63.416a.908.908,0,0,1-.522.186.6.6,0,0,1-.354-.107.8.8,0,0,1-.241-.265l-.359-.64a6.487,6.487,0,0,1,2.033-1.36,6.272,6.272,0,0,1,2.416-.45,4.315,4.315,0,0,1,1.7.314,3.484,3.484,0,0,1,1.247.877,3.713,3.713,0,0,1,.765,1.36,5.674,5.674,0,0,1,.258,1.753Zm-5.19-1.224a4.061,4.061,0,0,0,.967-.107,3.769,3.769,0,0,0,.825-.3,4.341,4.341,0,0,0,.741-.477,6.485,6.485,0,0,0,.691-.64v-2.349a13.357,13.357,0,0,0-2.348.176,6.566,6.566,0,0,0-1.574.458,2.185,2.185,0,0,0-.881.666,1.435,1.435,0,0,0-.275.859,1.91,1.91,0,0,0,.145.78,1.47,1.47,0,0,0,.394.536,1.539,1.539,0,0,0,.584.306A2.652,2.652,0,0,0,254.852,220.845Z" transform="translate(-236.157 -205.521)" fill="#fff"/>
    <path id="Path_557" data-name="Path 557" d="M284.679,197.649V214.2h-2V197.649Z" transform="translate(-255.535 -197.649)" fill="#fff"/>
    <path id="Path_558" data-name="Path 558" d="M298.27,211.011v7.257a3.014,3.014,0,0,0,.6,2,2.217,2.217,0,0,0,1.8.708,3.438,3.438,0,0,0,1.651-.416,5.15,5.15,0,0,0,1.427-1.157v-8.392h2v11.38h-1.191a.509.509,0,0,1-.539-.415l-.157-1.225a6.255,6.255,0,0,1-1.663,1.32,4.365,4.365,0,0,1-2.112.5,4.121,4.121,0,0,1-1.646-.309,3.261,3.261,0,0,1-1.2-.871,3.7,3.7,0,0,1-.725-1.359,6.078,6.078,0,0,1-.241-1.764v-7.257Z" transform="translate(-263.87 -205.843)" fill="#fff"/>
    <path id="Path_559" data-name="Path 559" d="M332.49,210.545a5.08,5.08,0,0,1,1.887.343,4.23,4.23,0,0,1,1.494.988,4.5,4.5,0,0,1,.983,1.6,6.163,6.163,0,0,1,.354,2.163,1.3,1.3,0,0,1-.1.629.42.42,0,0,1-.382.158h-7.572a6.285,6.285,0,0,0,.292,1.876,3.846,3.846,0,0,0,.742,1.331,2.974,2.974,0,0,0,1.124.8,3.851,3.851,0,0,0,1.461.264,4.249,4.249,0,0,0,1.3-.175,6.134,6.134,0,0,0,.938-.376,7.272,7.272,0,0,0,.658-.377.868.868,0,0,1,.455-.174.438.438,0,0,1,.381.191l.562.729a3.781,3.781,0,0,1-.888.781,5.5,5.5,0,0,1-1.106.545,7.021,7.021,0,0,1-1.22.321,7.514,7.514,0,0,1-1.247.106,5.78,5.78,0,0,1-2.173-.4,4.772,4.772,0,0,1-1.719-1.169,5.346,5.346,0,0,1-1.129-1.9,7.739,7.739,0,0,1-.4-2.606,6.608,6.608,0,0,1,.366-2.224,5.23,5.23,0,0,1,1.05-1.791,4.831,4.831,0,0,1,1.674-1.191A5.5,5.5,0,0,1,332.49,210.545Zm.045,1.472a3.071,3.071,0,0,0-2.281.837,3.933,3.933,0,0,0-1.033,2.32h6.189a4.056,4.056,0,0,0-.19-1.276,2.862,2.862,0,0,0-.562-1,2.525,2.525,0,0,0-.9-.651A3.051,3.051,0,0,0,332.534,212.017Z" transform="translate(-282.821 -205.557)" fill="#fff"/>
    <path id="Path_560" data-name="Path 560" d="M362.7,213.079h6.966v1.831h-9.145v-16.1h2.18Z" transform="translate(-303.267 -198.362)" fill="#fff"/>
    <path id="Path_561" data-name="Path 561" d="M396.958,222.069h-.887a1.054,1.054,0,0,1-.473-.09.5.5,0,0,1-.236-.382l-.224-1.056q-.45.4-.877.725a5.007,5.007,0,0,1-.9.538,4.663,4.663,0,0,1-1.006.332,5.758,5.758,0,0,1-1.185.113,4.057,4.057,0,0,1-1.242-.186,2.853,2.853,0,0,1-1.006-.559,2.652,2.652,0,0,1-.679-.942,3.3,3.3,0,0,1-.253-1.347,2.523,2.523,0,0,1,.371-1.3,3.268,3.268,0,0,1,1.2-1.111,7.789,7.789,0,0,1,2.162-.794,14.731,14.731,0,0,1,3.27-.31v-.893a3.093,3.093,0,0,0-.568-2.018,2.054,2.054,0,0,0-1.679-.684,3.532,3.532,0,0,0-1.23.186,4.613,4.613,0,0,0-.865.415c-.244.154-.454.292-.63.416a.908.908,0,0,1-.522.186.6.6,0,0,1-.354-.107.8.8,0,0,1-.241-.265l-.359-.64a6.482,6.482,0,0,1,2.033-1.36,6.27,6.27,0,0,1,2.415-.45,4.317,4.317,0,0,1,1.7.314,3.483,3.483,0,0,1,1.247.877,3.713,3.713,0,0,1,.764,1.36,5.66,5.66,0,0,1,.258,1.753Zm-5.19-1.224a4.063,4.063,0,0,0,.967-.107,3.776,3.776,0,0,0,.825-.3,4.344,4.344,0,0,0,.741-.477,6.523,6.523,0,0,0,.691-.64v-2.349a13.355,13.355,0,0,0-2.348.176,6.561,6.561,0,0,0-1.573.458,2.189,2.189,0,0,0-.882.666,1.437,1.437,0,0,0-.275.859,1.91,1.91,0,0,0,.145.78,1.474,1.474,0,0,0,.394.536,1.541,1.541,0,0,0,.584.306A2.653,2.653,0,0,0,391.768,220.845Z" transform="translate(-320.115 -205.521)" fill="#fff"/>
    <path id="Path_562" data-name="Path 562" d="M419.19,214.2V197.649h2.01v6.808a5.811,5.811,0,0,1,1.624-1.32,4.3,4.3,0,0,1,2.1-.5,4.19,4.19,0,0,1,1.785.37,3.609,3.609,0,0,1,1.36,1.107,5.319,5.319,0,0,1,.865,1.819,9.274,9.274,0,0,1,.3,2.5,7.88,7.88,0,0,1-.336,2.342,5.67,5.67,0,0,1-.972,1.876,4.491,4.491,0,0,1-3.612,1.7,3.8,3.8,0,0,1-1.871-.427,4.251,4.251,0,0,1-1.342-1.191l-.1,1.033a.481.481,0,0,1-.517.427Zm5.078-9.965a3.225,3.225,0,0,0-1.713.449,4.95,4.95,0,0,0-1.354,1.27v5.5a3.141,3.141,0,0,0,1.2,1.045,3.459,3.459,0,0,0,1.467.3,2.878,2.878,0,0,0,2.448-1.136,5.3,5.3,0,0,0,.854-3.235,8.077,8.077,0,0,0-.2-1.91,3.732,3.732,0,0,0-.567-1.309,2.2,2.2,0,0,0-.91-.747A3.023,3.023,0,0,0,424.268,204.233Z" transform="translate(-339.245 -197.649)" fill="#fff"/>
    <path id="Path_563" data-name="Path 563" d="M456.507,212.6a.442.442,0,0,1-.416.247.781.781,0,0,1-.381-.123c-.142-.082-.317-.174-.523-.275a4.781,4.781,0,0,0-.736-.281,3.49,3.49,0,0,0-1.011-.13,2.972,2.972,0,0,0-.91.13,2.176,2.176,0,0,0-.691.354,1.582,1.582,0,0,0-.438.522,1.408,1.408,0,0,0-.152.646,1.073,1.073,0,0,0,.253.729,2.186,2.186,0,0,0,.668.506,5.81,5.81,0,0,0,.944.377q.528.163,1.084.348t1.084.41a3.941,3.941,0,0,1,.944.562,2.562,2.562,0,0,1,.668.826,2.529,2.529,0,0,1,.253,1.174,3.709,3.709,0,0,1-.282,1.454,3.171,3.171,0,0,1-.831,1.158,4.019,4.019,0,0,1-1.349.77,5.553,5.553,0,0,1-1.842.281,5.739,5.739,0,0,1-2.157-.388,5.454,5.454,0,0,1-1.64-.994l.472-.764a.675.675,0,0,1,.213-.225.606.606,0,0,1,.326-.078.752.752,0,0,1,.427.157q.223.158.545.348a4.2,4.2,0,0,0,.775.348,3.52,3.52,0,0,0,1.14.157,3.115,3.115,0,0,0,1.022-.152,2.143,2.143,0,0,0,.731-.41,1.637,1.637,0,0,0,.432-.6,1.856,1.856,0,0,0,.14-.719,1.192,1.192,0,0,0-.253-.781,2.135,2.135,0,0,0-.668-.529,5.445,5.445,0,0,0-.95-.381q-.534-.164-1.089-.343t-1.09-.41a3.819,3.819,0,0,1-.95-.579,2.61,2.61,0,0,1-.668-.859,2.778,2.778,0,0,1-.252-1.241,3.024,3.024,0,0,1,.27-1.253,3.061,3.061,0,0,1,.786-1.056,3.865,3.865,0,0,1,1.269-.724,5.076,5.076,0,0,1,1.719-.27,5.438,5.438,0,0,1,2.017.354,4.781,4.781,0,0,1,1.545.972Z" transform="translate(-357.554 -205.557)" fill="#fff"/>
  </g>
</svg>
